<svg width="35" height="32" viewBox="0 0 35 32" fill="none" xmlns="http://www.w3.org/2000/svg">
<g id="formkit:add">
<path id="Vector" d="M17.5 30C9.2975 30 2.625 23.72 2.625 16C2.625 8.28 9.2975 2 17.5 2C25.7025 2 32.375 8.28 32.375 16C32.375 23.72 25.7025 30 17.5 30ZM17.5 4C10.4662 4 4.75 9.38 4.75 16C4.75 22.62 10.4662 28 17.5 28C24.5338 28 30.25 22.62 30.25 16C30.25 9.38 24.5338 4 17.5 4Z" fill="white"/>
<path id="Vector_2" d="M17.5 23C16.905 23 16.4375 22.56 16.4375 22V10C16.4375 9.44 16.905 9 17.5 9C18.095 9 18.5625 9.44 18.5625 10V22C18.5625 22.56 18.095 23 17.5 23Z" fill="white"/>
<path id="Vector_3" d="M23.875 17H11.125C10.53 17 10.0625 16.56 10.0625 16C10.0625 15.44 10.53 15 11.125 15H23.875C24.47 15 24.9375 15.44 24.9375 16C24.9375 16.56 24.47 17 23.875 17Z" fill="white"/>
</g>
</svg>
