<svg width="20" height="22" viewBox="0 0 20 22" fill="none" xmlns="http://www.w3.org/2000/svg">
<path fill-rule="evenodd" clip-rule="evenodd" d="M8.16483 19.1094C8.68283 19.6864 9.34783 20.0034 10.0378 20.0034H10.0388C10.7318 20.0034 11.3998 19.6864 11.9188 19.1084C12.052 18.9606 12.2384 18.8716 12.4371 18.8612C12.6358 18.8508 12.8305 18.9198 12.9783 19.0529C13.1262 19.1861 13.2151 19.3725 13.2255 19.5712C13.2359 19.7699 13.167 19.9646 13.0338 20.1124C12.2258 21.0094 11.1638 21.5034 10.0388 21.5034H10.0368C8.91683 21.5024 7.85483 21.0084 7.04983 20.1114C6.98404 20.0382 6.93331 19.9528 6.90055 19.8599C6.86778 19.7671 6.85361 19.6688 6.85886 19.5705C6.86411 19.4722 6.88866 19.3759 6.93112 19.2871C6.97359 19.1983 7.03312 19.1187 7.10633 19.0529C7.17955 18.9871 7.265 18.9364 7.35782 18.9036C7.45063 18.8709 7.54899 18.8567 7.64728 18.8619C7.74558 18.8672 7.84187 18.8917 7.93067 18.9342C8.01947 18.9767 8.09904 19.0362 8.16483 19.1094ZM10.0878 0.00341797C14.5328 0.00341797 17.5188 3.46542 17.5188 6.69842C17.5188 8.36142 17.9418 9.06642 18.3908 9.81442C18.8348 10.5524 19.3378 11.3904 19.3378 12.9744C18.9888 17.0214 14.7638 17.3514 10.0878 17.3514C5.41183 17.3514 1.18583 17.0214 0.840834 13.0384C0.837834 11.3904 1.34083 10.5524 1.78483 9.81442L1.94183 9.55042C2.32783 8.88742 2.65683 8.16542 2.65683 6.69842C2.65683 3.46542 5.64283 0.00341797 10.0878 0.00341797ZM10.0878 1.50342C6.59283 1.50342 4.15783 4.24142 4.15783 6.69842C4.15783 8.77742 3.57983 9.73842 3.06983 10.5864C2.66083 11.2674 2.33783 11.8054 2.33783 12.9744C2.50483 14.8604 3.74983 15.8514 10.0878 15.8514C16.3908 15.8514 17.6748 14.8164 17.8408 12.9094C17.8378 11.8054 17.5148 11.2674 17.1058 10.5864C16.5958 9.73842 16.0188 8.77742 16.0188 6.69842C16.0188 4.24142 13.5828 1.50342 10.0888 1.50342H10.0878Z" fill="white"/>
</svg>
