<svg width="769" height="769" viewBox="0 0 769 769" fill="none" xmlns="http://www.w3.org/2000/svg">
<path d="M384 0.03125C436.667 0.03125 486.333 10.0312 533 30.0312C579.667 50.0312 620.333 77.3646 655 112.031C689.667 146.698 717.333 187.698 738 235.031C758.667 282.365 768.667 332.031 768 384.031C768 437.365 758 487.031 738 533.031C718 579.031 690.667 619.698 656 655.031C621.333 690.365 580.333 718.031 533 738.031C485.667 758.031 436 768.031 384 768.031C330.667 768.031 281 758.031 235 738.031C189 718.031 148.333 690.698 113 656.031C77.6667 621.365 50 580.698 30 534.031C10 487.365 0 437.365 0 384.031C0 331.365 10 281.698 30 235.031C50 188.365 77.3333 147.698 112 113.031C146.667 78.3646 187.333 50.6979 234 30.0312C280.667 9.36458 330.667 -0.635417 384 0.03125Z" fill="black"/>
</svg>
