<svg width="386" height="286" viewBox="0 0 386 286" fill="none" xmlns="http://www.w3.org/2000/svg">
<rect x="60.8594" y="47.5601" width="257.407" height="188.992" stroke="#C6C6C6" stroke-width="2" stroke-linejoin="round" stroke-dasharray="3 3"/>
<rect x="0.5" width="268.26" height="202.564" fill="#F1F1F1"/>
<rect x="7.06934" y="29.5632" width="255.121" height="168.621" fill="white"/>
<rect x="27.873" y="51.4626" width="211.323" height="122.633" rx="8" fill="#F1F1F1"/>
<rect x="244.672" y="13.1392" width="16.4241" height="4.37976" rx="2.18988" fill="#C4C4C4"/>
<rect x="43.7061" y="90.2698" width="78.8672" height="4.75104" rx="2.37552" fill="white"/>
<rect x="43.7061" y="137.78" width="78.8672" height="4.75104" rx="2.37552" fill="white"/>
<rect x="138.727" y="90.2698" width="78.8672" height="4.75104" rx="2.37552" fill="#A87BFF"/>
<rect x="43.7061" y="82.6682" width="78.8672" height="4.75104" rx="2.37552" fill="white"/>
<rect x="43.7061" y="130.178" width="78.8672" height="4.75104" rx="2.37552" fill="#00FFFF"/>
<rect x="138.727" y="82.6682" width="78.8672" height="4.75104" rx="2.37552" fill="white"/>
<rect x="43.7061" y="97.8713" width="78.8672" height="4.75104" rx="2.37552" fill="white"/>
<rect x="43.7061" y="145.382" width="78.8672" height="4.75104" rx="2.37552" fill="#00FFFF"/>
<rect x="138.727" y="97.8713" width="78.8672" height="4.75104" rx="2.37552" fill="white"/>
<rect x="43.7061" y="105.473" width="44.6598" height="4.75104" rx="2.37552" fill="#A87BFF"/>
<rect x="43.7061" y="152.983" width="44.6598" height="4.75104" rx="2.37552" fill="white"/>
<rect x="138.727" y="105.473" width="44.6598" height="4.75104" rx="2.37552" fill="white"/>
<circle cx="9.80669" cy="14.7815" r="2.73735" fill="#C4C4C4"/>
<circle cx="17.4717" cy="14.7815" r="2.73735" fill="#C4C4C4"/>
<circle cx="25.1358" cy="14.7815" r="2.73735" fill="#C4C4C4"/>
<g filter="url(#filter0_d_1230_1852)">
<rect x="160.582" y="119.726" width="198.883" height="134.678" rx="15" fill="white"/>
</g>
<line x1="202.19" y1="187.651" x2="321.167" y2="187.651" stroke="#F1F1F1"/>
<line x1="200.491" y1="210.634" x2="319.468" y2="210.634" stroke="#F1F1F1"/>
<line x1="200.491" y1="176.159" x2="319.468" y2="176.159" stroke="#F1F1F1"/>
<line x1="200.491" y1="199.142" x2="319.468" y2="199.142" stroke="#F1F1F1"/>
<line x1="200.491" y1="164.667" x2="319.468" y2="164.667" stroke="#F1F1F1"/>
<line x1="209.489" y1="153.675" x2="209.489" y2="217.598" stroke="#F1F1F1"/>
<line x1="250.281" y1="153.675" x2="250.281" y2="217.598" stroke="#F1F1F1"/>
<line x1="291.073" y1="153.675" x2="291.073" y2="217.598" stroke="#F1F1F1"/>
<line x1="223.087" y1="152.957" x2="223.087" y2="216.88" stroke="#F1F1F1"/>
<line x1="263.879" y1="152.957" x2="263.879" y2="216.88" stroke="#F1F1F1"/>
<line x1="304.671" y1="152.957" x2="304.671" y2="216.88" stroke="#F1F1F1"/>
<line x1="236.685" y1="152.957" x2="236.685" y2="216.88" stroke="#F1F1F1"/>
<line x1="277.477" y1="152.957" x2="277.477" y2="216.88" stroke="#F1F1F1"/>
<line x1="318.269" y1="152.957" x2="318.269" y2="216.88" stroke="#F1F1F1"/>
<rect x="185.287" y="154.884" width="5.70124" height="2.85062" rx="1.42531" fill="#E0DBFF"/>
<rect x="186.237" y="211.896" width="5.70124" height="2.85062" rx="1.42531" fill="#E0DBFF"/>
<rect x="185.287" y="183.39" width="5.70124" height="2.85062" rx="1.42531" fill="#E0DBFF"/>
<rect x="197.64" y="234.702" width="5.70124" height="2.85062" rx="1.42531" transform="rotate(-90 197.64 234.702)" fill="#E0DBFF"/>
<rect x="226.146" y="234.702" width="5.70124" height="2.85062" rx="1.42531" transform="rotate(-90 226.146 234.702)" fill="#E0DBFF"/>
<rect x="254.652" y="234.702" width="5.70124" height="2.85062" rx="1.42531" transform="rotate(-90 254.652 234.702)" fill="#E0DBFF"/>
<rect x="283.158" y="234.702" width="5.70124" height="2.85062" rx="1.42531" transform="rotate(-90 283.158 234.702)" fill="#E0DBFF"/>
<rect x="311.665" y="234.702" width="5.70124" height="2.85062" rx="1.42531" transform="rotate(-90 311.665 234.702)" fill="#E0DBFF"/>
<rect x="185.287" y="169.137" width="5.70124" height="2.85062" rx="1.42531" fill="#E0DBFF"/>
<rect x="186.237" y="226.15" width="5.70124" height="2.85062" rx="1.42531" fill="#E0DBFF"/>
<rect x="185.287" y="197.644" width="5.70124" height="2.85062" rx="1.42531" fill="#E0DBFF"/>
<rect x="211.893" y="234.702" width="5.70124" height="2.85062" rx="1.42531" transform="rotate(-90 211.893 234.702)" fill="#E0DBFF"/>
<rect x="240.399" y="234.702" width="5.70124" height="2.85062" rx="1.42531" transform="rotate(-90 240.399 234.702)" fill="#E0DBFF"/>
<rect x="268.905" y="234.702" width="5.70124" height="2.85062" rx="1.42531" transform="rotate(-90 268.905 234.702)" fill="#E0DBFF"/>
<rect x="297.411" y="234.702" width="5.70124" height="2.85062" rx="1.42531" transform="rotate(-90 297.411 234.702)" fill="#E0DBFF"/>
<rect x="325.918" y="234.702" width="5.70124" height="2.85062" rx="1.42531" transform="rotate(-90 325.918 234.702)" fill="#E0DBFF"/>
<path d="M264.01 194.318C230.168 182.172 207.911 206.171 200.246 220.932C199.907 221.584 200.389 222.349 201.124 222.349H321.118C321.67 222.349 322.118 221.901 322.118 221.349V156.914C322.118 155.725 320.086 155.441 319.7 156.565C312.505 177.475 294.627 205.305 264.01 194.318Z" fill="#00FFFF"/>
<path d="M190.038 147.282V231.851H332.094" stroke="#E0DBFF" stroke-width="3"/>
<defs>
<filter id="filter0_d_1230_1852" x="144.582" y="108.726" width="240.883" height="176.677" filterUnits="userSpaceOnUse" color-interpolation-filters="sRGB">
<feFlood flood-opacity="0" result="BackgroundImageFix"/>
<feColorMatrix in="SourceAlpha" type="matrix" values="0 0 0 0 0 0 0 0 0 0 0 0 0 0 0 0 0 0 127 0" result="hardAlpha"/>
<feOffset dx="5" dy="10"/>
<feGaussianBlur stdDeviation="10.5"/>
<feComposite in2="hardAlpha" operator="out"/>
<feColorMatrix type="matrix" values="0 0 0 0 0.700272 0 0 0 0 0.700272 0 0 0 0 0.700272 0 0 0 0.25 0"/>
<feBlend mode="normal" in2="BackgroundImageFix" result="effect1_dropShadow_1230_1852"/>
<feBlend mode="normal" in="SourceGraphic" in2="effect1_dropShadow_1230_1852" result="shape"/>
</filter>
</defs>
</svg>
