<svg width="11" height="18" viewBox="0 0 11 18" fill="none" xmlns="http://www.w3.org/2000/svg">
<path d="M6.29982 7.9C4.02982 7.31 3.29982 6.7 3.29982 5.75C3.29982 4.66 4.30982 3.9 5.99982 3.9C7.77982 3.9 8.43982 4.75 8.49982 6H10.7098C10.6398 4.28 9.58982 2.7 7.49982 2.19V0H4.49982V2.16C2.55982 2.58 0.999824 3.84 0.999824 5.77C0.999824 8.08 2.90982 9.23 5.69982 9.9C8.19982 10.5 8.69982 11.38 8.69982 12.31C8.69982 13 8.20982 14.1 5.99982 14.1C3.93982 14.1 3.12982 13.18 3.01982 12H0.819824C0.939824 14.19 2.57982 15.42 4.49982 15.83V18H7.49982V15.85C9.44982 15.48 10.9998 14.35 10.9998 12.3C10.9998 9.46 8.56982 8.49 6.29982 7.9Z" fill="#008080"/>
</svg>
