<svg width="25" height="24" viewBox="0 0 25 24" fill="none" xmlns="http://www.w3.org/2000/svg">
<g clip-path="url(#clip0_1700_486)">
<path d="M18.67 4.9097L17.6 3.8397L12.05 9.3897V10.4697H13.13L18.67 4.9097ZM16.5 2.7397L17.79 1.4497C17.9286 1.30941 18.0936 1.19802 18.2756 1.122C18.4576 1.04598 18.6528 1.00684 18.85 1.00684C19.0472 1.00684 19.2424 1.04598 19.4244 1.122C19.6064 1.19802 19.7714 1.30941 19.91 1.4497L21.06 2.5997C21.65 3.1897 21.65 4.1397 21.06 4.7197L20.38 5.3997L20.36 5.4197L19.78 5.9997L13.78 11.9997H10.5V8.7397L16.5 2.7397ZM14.22 2.1897L13.67 2.7397L12.4 4.0097C9.1 4.0597 6.5 6.6097 6.5 10.2097C6.5 12.5497 8.45 15.6497 12.5 19.3497C16.55 15.6497 18.5 12.5597 18.5 10.2097V10.1097L20.3 8.3097C20.43 8.9097 20.5 9.5497 20.5 10.2097C20.5 13.5297 17.83 17.4597 12.5 22.0097C7.17 17.4597 4.5 13.5297 4.5 10.2097C4.5 5.2297 8.3 2.0097 12.5 2.0097C13.08 2.0097 13.66 2.0697 14.22 2.1897Z" fill="#008080"/>
</g>
<defs>
<clipPath id="clip0_1700_486">
<rect width="24" height="24" fill="white" transform="translate(0.5)"/>
</clipPath>
</defs>
</svg>
