<svg width="49" height="48" viewBox="0 0 49 48" fill="none" xmlns="http://www.w3.org/2000/svg">
<g id="Group 29">
<path id="Path-124_10_" d="M1.36035 33.7813L16.7868 20.2832L30.2849 33.7813" stroke="white" stroke-linecap="round" stroke-linejoin="round"/>
<path id="Rectangle-24_7_" d="M9.07357 1H39.9265C44.1687 1 47.6397 4.47095 47.6397 8.71322V39.5661C47.6397 43.8084 44.1687 47.2793 39.9265 47.2793H9.07357C4.8313 47.2793 1.36035 43.8084 1.36035 39.5661V8.71322C1.36035 4.47095 4.8313 1 9.07357 1Z" stroke="white" stroke-linecap="round" stroke-linejoin="round"/>
<path id="Path-125_10_" d="M47.6385 33.7813L39.9253 26.0681L30.4766 33.9742" stroke="white" stroke-linecap="round" stroke-linejoin="round"/>
<path id="Oval-24_10_" d="M31.249 22.2114C33.9114 22.2114 36.0697 20.053 36.0697 17.3906C36.0697 14.7282 33.9114 12.5698 31.249 12.5698C28.5866 12.5698 26.4282 14.7282 26.4282 17.3906C26.4282 20.053 28.5866 22.2114 31.249 22.2114Z" stroke="white" stroke-linecap="round" stroke-linejoin="round"/>
</g>
</svg>
