<svg width="28" height="28" viewBox="0 0 28 28" fill="none" xmlns="http://www.w3.org/2000/svg">
<g clip-path="url(#clip0_1430_737)">
<path d="M10.4997 16.0416C7.76967 16.0416 2.33301 17.4066 2.33301 20.1249V22.1666H18.6663V20.1249C18.6663 17.4066 13.2297 16.0416 10.4997 16.0416ZM5.06301 19.8333C6.04301 19.1566 8.41134 18.3749 10.4997 18.3749C12.588 18.3749 14.9563 19.1566 15.9363 19.8333H5.06301ZM10.4997 13.9999C12.7513 13.9999 14.583 12.1683 14.583 9.91658C14.583 7.66492 12.7513 5.83325 10.4997 5.83325C8.24801 5.83325 6.41634 7.66492 6.41634 9.91658C6.41634 12.1683 8.24801 13.9999 10.4997 13.9999ZM10.4997 8.16659C11.468 8.16659 12.2497 8.94825 12.2497 9.91658C12.2497 10.8849 11.468 11.6666 10.4997 11.6666C9.53134 11.6666 8.74967 10.8849 8.74967 9.91658C8.74967 8.94825 9.53134 8.16659 10.4997 8.16659ZM18.713 16.1116C20.0663 17.0916 20.9997 18.3983 20.9997 20.1249V22.1666H25.6663V20.1249C25.6663 17.7683 21.583 16.4266 18.713 16.1116ZM17.4997 13.9999C19.7513 13.9999 21.583 12.1683 21.583 9.91658C21.583 7.66492 19.7513 5.83325 17.4997 5.83325C16.8697 5.83325 16.2863 5.98492 15.7497 6.24159C16.4847 7.27992 16.9163 8.55159 16.9163 9.91658C16.9163 11.2816 16.4847 12.5533 15.7497 13.5916C16.2863 13.8483 16.8697 13.9999 17.4997 13.9999Z" fill="#008080"/>
</g>
<defs>
<clipPath id="clip0_1430_737">
<rect width="28" height="28" fill="white"/>
</clipPath>
</defs>
</svg>
