<svg xmlns="http://www.w3.org/2000/svg" width="25" height="24" viewBox="0 0 25 24" fill="none">
  <g clip-path="url(#clip0_1576_4162)">
    <path d="M18.67 4.90994L17.6 3.83994L12.05 9.38994V10.4699H13.13L18.67 4.90994ZM16.5 2.73994L17.79 1.44994C17.9286 1.30965 18.0936 1.19827 18.2756 1.12225C18.4576 1.04623 18.6528 1.00708 18.85 1.00708C19.0472 1.00708 19.2424 1.04623 19.4244 1.12225C19.6064 1.19827 19.7714 1.30965 19.91 1.44994L21.06 2.59994C21.65 3.18994 21.65 4.13994 21.06 4.71994L20.38 5.39994L20.36 5.41994L19.78 5.99994L13.78 11.9999H10.5V8.73994L16.5 2.73994ZM14.22 2.18994L13.67 2.73994L12.4 4.00994C9.1 4.05994 6.5 6.60994 6.5 10.2099C6.5 12.5499 8.45 15.6499 12.5 19.3499C16.55 15.6499 18.5 12.5599 18.5 10.2099V10.1099L20.3 8.30994C20.43 8.90994 20.5 9.54994 20.5 10.2099C20.5 13.5299 17.83 17.4599 12.5 22.0099C7.17 17.4599 4.5 13.5299 4.5 10.2099C4.5 5.22994 8.3 2.00994 12.5 2.00994C13.08 2.00994 13.66 2.06994 14.22 2.18994Z" fill="#008080"/>
  </g>
  <defs>
    <clipPath id="clip0_1576_4162">
      <rect width="24" height="24" fill="white" transform="translate(0.5)"/>
    </clipPath>
  </defs>
</svg>