<svg width="416" height="278" viewBox="0 0 416 278" fill="none" xmlns="http://www.w3.org/2000/svg">
<rect x="39.1416" y="51.1389" width="257.501" height="174.285" stroke="#C6C6C6" stroke-width="2" stroke-linejoin="round" stroke-dasharray="3 3"/>
<rect x="77.5596" y="0.866943" width="268.26" height="202.564" fill="#F1F1F1"/>
<rect x="84.1289" y="30.4302" width="255.121" height="168.621" fill="white"/>
<rect x="104.933" y="52.3293" width="211.323" height="122.633" rx="8" fill="#F1F1F1"/>
<rect x="321.731" y="14.0061" width="16.4241" height="4.37976" rx="2.18988" fill="#C4C4C4"/>
<rect x="201.288" y="131.165" width="47.0824" height="4.37976" rx="2.18988" fill="white"/>
<rect x="116.978" y="73.1328" width="47.0824" height="4.37976" rx="2.18988" fill="white"/>
<rect x="258.225" y="131.165" width="47.0824" height="4.37976" rx="2.18988" fill="white"/>
<rect x="201.288" y="138.829" width="47.0824" height="4.37976" rx="2.18988" fill="white"/>
<rect x="116.978" y="80.7971" width="47.0824" height="4.37976" rx="2.18988" fill="white"/>
<rect x="258.225" y="138.829" width="47.0824" height="4.37976" rx="2.18988" fill="white"/>
<rect x="201.288" y="146.494" width="26.2786" height="4.37976" rx="2.18988" fill="white"/>
<rect x="116.978" y="88.4624" width="26.2786" height="4.37976" rx="2.18988" fill="white"/>
<rect x="258.225" y="146.494" width="26.2786" height="4.37976" rx="2.18988" fill="white"/>
<circle cx="86.8663" cy="15.6485" r="2.73735" fill="#C4C4C4"/>
<circle cx="94.5313" cy="15.6485" r="2.73735" fill="#C4C4C4"/>
<circle cx="102.195" cy="15.6485" r="2.73735" fill="#C4C4C4"/>
<g filter="url(#filter0_d_1230_1801)">
<rect x="16.2432" y="111.456" width="167.526" height="134.678" rx="15" fill="white"/>
</g>
<rect x="33.7627" y="142.114" width="130.298" height="19.7089" rx="4" fill="#EEEEEE"/>
<rect x="33.7617" y="183.722" width="130.298" height="19.7089" rx="4" fill="#EEEEEE"/>
<rect x="33.5" y="214" width="46" height="20" rx="4" fill="#A87BFF"/>
<path d="M34.6867 133.69C34.584 133.69 34.5047 133.664 34.4487 133.613C34.3974 133.557 34.3717 133.477 34.3717 133.375V129.07C34.3717 128.967 34.3974 128.89 34.4487 128.839C34.5047 128.783 34.584 128.755 34.6867 128.755H36.0377C36.8357 128.755 37.4517 128.965 37.8857 129.385C38.3197 129.805 38.5367 130.416 38.5367 131.219C38.5367 131.62 38.4807 131.975 38.3687 132.283C38.2614 132.586 38.1004 132.843 37.8857 133.053C37.671 133.263 37.4097 133.421 37.1017 133.529C36.7937 133.636 36.439 133.69 36.0377 133.69H34.6867ZM34.9457 133.2H35.9957C36.3224 133.2 36.6047 133.158 36.8427 133.074C37.0854 132.99 37.286 132.866 37.4447 132.703C37.608 132.539 37.7294 132.334 37.8087 132.087C37.888 131.835 37.9277 131.545 37.9277 131.219C37.9277 130.561 37.7667 130.068 37.4447 129.742C37.1227 129.41 36.6397 129.245 35.9957 129.245H34.9457V133.2ZM40.561 133.753C40.3277 133.753 40.1177 133.708 39.931 133.62C39.749 133.526 39.6043 133.4 39.497 133.242C39.3897 133.083 39.336 132.906 39.336 132.71C39.336 132.458 39.399 132.259 39.525 132.115C39.6557 131.97 39.868 131.867 40.162 131.807C40.4607 131.746 40.8667 131.716 41.38 131.716H41.695V132.087H41.387C41.009 132.087 40.7103 132.105 40.491 132.143C40.2763 132.175 40.1247 132.234 40.036 132.318C39.952 132.402 39.91 132.521 39.91 132.675C39.91 132.866 39.9753 133.022 40.106 133.144C40.2413 133.265 40.4233 133.326 40.652 133.326C40.8387 133.326 41.002 133.281 41.142 133.193C41.2867 133.104 41.3987 132.983 41.478 132.829C41.562 132.675 41.604 132.497 41.604 132.297V131.499C41.604 131.209 41.5457 131.002 41.429 130.876C41.3123 130.745 41.121 130.68 40.855 130.68C40.6917 130.68 40.5283 130.701 40.365 130.743C40.2017 130.785 40.029 130.852 39.847 130.946C39.7817 130.978 39.7257 130.99 39.679 130.981C39.6323 130.967 39.595 130.941 39.567 130.904C39.539 130.866 39.5227 130.824 39.518 130.778C39.5133 130.726 39.5227 130.677 39.546 130.631C39.574 130.584 39.616 130.547 39.672 130.519C39.8773 130.416 40.0803 130.341 40.281 130.295C40.4817 130.248 40.673 130.225 40.855 130.225C41.149 130.225 41.3917 130.274 41.583 130.372C41.7743 130.465 41.9167 130.61 42.01 130.806C42.1033 130.997 42.15 131.244 42.15 131.548V133.445C42.15 133.538 42.1267 133.61 42.08 133.662C42.038 133.713 41.975 133.739 41.891 133.739C41.8023 133.739 41.7347 133.713 41.688 133.662C41.6413 133.61 41.618 133.538 41.618 133.445V132.899H41.681C41.6437 133.076 41.5713 133.228 41.464 133.354C41.3613 133.48 41.233 133.578 41.079 133.648C40.925 133.718 40.7523 133.753 40.561 133.753ZM44.5669 133.753C44.3009 133.753 44.0769 133.706 43.8949 133.613C43.7176 133.515 43.5846 133.375 43.4959 133.193C43.4073 133.006 43.3629 132.78 43.3629 132.514V130.729H42.8939C42.8146 130.729 42.7539 130.71 42.7119 130.673C42.6699 130.631 42.6489 130.575 42.6489 130.505C42.6489 130.435 42.6699 130.381 42.7119 130.344C42.7539 130.306 42.8146 130.288 42.8939 130.288H43.3629V129.483C43.3629 129.389 43.3886 129.319 43.4399 129.273C43.4913 129.221 43.5613 129.196 43.6499 129.196C43.7386 129.196 43.8063 129.221 43.8529 129.273C43.9043 129.319 43.9299 129.389 43.9299 129.483V130.288H44.8119C44.8913 130.288 44.9519 130.306 44.9939 130.344C45.0359 130.381 45.0569 130.435 45.0569 130.505C45.0569 130.575 45.0359 130.631 44.9939 130.673C44.9519 130.71 44.8913 130.729 44.8119 130.729H43.9299V132.458C43.9299 132.724 43.9859 132.927 44.0979 133.067C44.2099 133.202 44.3919 133.27 44.6439 133.27C44.7326 133.27 44.8073 133.26 44.8679 133.242C44.9333 133.223 44.9869 133.214 45.0289 133.214C45.0709 133.209 45.1059 133.223 45.1339 133.256C45.1619 133.288 45.1759 133.344 45.1759 133.424C45.1759 133.48 45.1643 133.531 45.1409 133.578C45.1223 133.624 45.0873 133.657 45.0359 133.676C44.9799 133.694 44.9053 133.711 44.8119 133.725C44.7233 133.743 44.6416 133.753 44.5669 133.753ZM47.148 133.753C46.7887 133.753 46.4783 133.683 46.217 133.543C45.9603 133.398 45.7597 133.195 45.615 132.934C45.475 132.672 45.405 132.36 45.405 131.996C45.405 131.641 45.475 131.333 45.615 131.072C45.755 130.806 45.9463 130.598 46.189 130.449C46.4363 130.299 46.721 130.225 47.043 130.225C47.2717 130.225 47.477 130.264 47.659 130.344C47.841 130.418 47.995 130.528 48.121 130.673C48.2517 130.817 48.3497 130.992 48.415 131.198C48.485 131.403 48.52 131.634 48.52 131.891C48.52 131.965 48.499 132.021 48.457 132.059C48.415 132.091 48.3543 132.108 48.275 132.108H45.839V131.737H48.142L48.03 131.828C48.03 131.576 47.9927 131.363 47.918 131.191C47.8433 131.013 47.7337 130.878 47.589 130.785C47.449 130.691 47.2717 130.645 47.057 130.645C46.819 130.645 46.616 130.701 46.448 130.813C46.2847 130.92 46.161 131.072 46.077 131.268C45.993 131.459 45.951 131.683 45.951 131.94V131.982C45.951 132.411 46.0537 132.738 46.259 132.962C46.469 133.186 46.7653 133.298 47.148 133.298C47.3067 133.298 47.463 133.277 47.617 133.235C47.7757 133.193 47.9297 133.123 48.079 133.025C48.1443 132.983 48.2027 132.964 48.254 132.969C48.31 132.969 48.3543 132.985 48.387 133.018C48.4197 133.046 48.4407 133.083 48.45 133.13C48.464 133.172 48.4593 133.218 48.436 133.27C48.4173 133.321 48.3777 133.365 48.317 133.403C48.163 133.515 47.981 133.601 47.771 133.662C47.561 133.722 47.3533 133.753 47.148 133.753ZM52.5873 133.753C52.2466 133.753 51.9526 133.678 51.7053 133.529C51.4579 133.379 51.2666 133.172 51.1313 132.906C51.0006 132.635 50.9353 132.322 50.9353 131.968C50.9353 131.697 50.9726 131.454 51.0473 131.24C51.1219 131.025 51.2316 130.843 51.3763 130.694C51.5209 130.54 51.6936 130.423 51.8943 130.344C52.0996 130.264 52.3306 130.225 52.5873 130.225C52.7553 130.225 52.9303 130.25 53.1123 130.302C53.2943 130.353 53.4599 130.442 53.6093 130.568C53.6559 130.6 53.6863 130.64 53.7003 130.687C53.7143 130.733 53.7143 130.78 53.7003 130.827C53.6863 130.869 53.6629 130.906 53.6303 130.939C53.5976 130.967 53.5556 130.983 53.5043 130.988C53.4576 130.992 53.4086 130.976 53.3573 130.939C53.2359 130.845 53.1123 130.78 52.9863 130.743C52.8603 130.705 52.7389 130.687 52.6223 130.687C52.4403 130.687 52.2816 130.717 52.1463 130.778C52.0109 130.834 51.8966 130.915 51.8033 131.023C51.7099 131.13 51.6376 131.263 51.5863 131.422C51.5396 131.58 51.5163 131.765 51.5163 131.975C51.5163 132.381 51.6119 132.703 51.8033 132.941C51.9946 133.174 52.2676 133.291 52.6223 133.291C52.7389 133.291 52.8579 133.272 52.9793 133.235C53.1053 133.197 53.2313 133.132 53.3573 133.039C53.4086 133.001 53.4576 132.985 53.5043 132.99C53.5509 132.994 53.5906 133.013 53.6233 133.046C53.6559 133.074 53.6769 133.111 53.6863 133.158C53.7003 133.204 53.7003 133.251 53.6863 133.298C53.6723 133.34 53.6419 133.377 53.5953 133.41C53.4459 133.531 53.2826 133.62 53.1053 133.676C52.9279 133.727 52.7553 133.753 52.5873 133.753ZM54.6725 133.739C54.5792 133.739 54.5068 133.713 54.4555 133.662C54.4088 133.61 54.3855 133.538 54.3855 133.445V130.526C54.3855 130.432 54.4088 130.362 54.4555 130.316C54.5022 130.264 54.5698 130.239 54.6585 130.239C54.7472 130.239 54.8148 130.264 54.8615 130.316C54.9128 130.362 54.9385 130.432 54.9385 130.526V131.093H54.8685C54.9432 130.817 55.0855 130.605 55.2955 130.456C55.5055 130.306 55.7645 130.227 56.0725 130.218C56.1425 130.213 56.1985 130.229 56.2405 130.267C56.2825 130.299 56.3058 130.358 56.3105 130.442C56.3152 130.521 56.2965 130.584 56.2545 130.631C56.2125 130.677 56.1472 130.705 56.0585 130.715L55.9465 130.729C55.6292 130.757 55.3842 130.859 55.2115 131.037C55.0435 131.209 54.9595 131.447 54.9595 131.751V133.445C54.9595 133.538 54.9338 133.61 54.8825 133.662C54.8358 133.713 54.7658 133.739 54.6725 133.739ZM58.3863 133.753C58.027 133.753 57.7166 133.683 57.4553 133.543C57.1986 133.398 56.998 133.195 56.8533 132.934C56.7133 132.672 56.6433 132.36 56.6433 131.996C56.6433 131.641 56.7133 131.333 56.8533 131.072C56.9933 130.806 57.1846 130.598 57.4273 130.449C57.6746 130.299 57.9593 130.225 58.2813 130.225C58.51 130.225 58.7153 130.264 58.8973 130.344C59.0793 130.418 59.2333 130.528 59.3593 130.673C59.49 130.817 59.588 130.992 59.6533 131.198C59.7233 131.403 59.7583 131.634 59.7583 131.891C59.7583 131.965 59.7373 132.021 59.6953 132.059C59.6533 132.091 59.5926 132.108 59.5133 132.108H57.0773V131.737H59.3803L59.2683 131.828C59.2683 131.576 59.231 131.363 59.1563 131.191C59.0816 131.013 58.972 130.878 58.8273 130.785C58.6873 130.691 58.51 130.645 58.2953 130.645C58.0573 130.645 57.8543 130.701 57.6863 130.813C57.523 130.92 57.3993 131.072 57.3153 131.268C57.2313 131.459 57.1893 131.683 57.1893 131.94V131.982C57.1893 132.411 57.292 132.738 57.4973 132.962C57.7073 133.186 58.0036 133.298 58.3863 133.298C58.545 133.298 58.7013 133.277 58.8553 133.235C59.014 133.193 59.168 133.123 59.3173 133.025C59.3826 132.983 59.441 132.964 59.4923 132.969C59.5483 132.969 59.5926 132.985 59.6253 133.018C59.658 133.046 59.679 133.083 59.6883 133.13C59.7023 133.172 59.6976 133.218 59.6743 133.27C59.6556 133.321 59.616 133.365 59.5553 133.403C59.4013 133.515 59.2193 133.601 59.0093 133.662C58.7993 133.722 58.5916 133.753 58.3863 133.753ZM61.6499 133.753C61.4165 133.753 61.2065 133.708 61.0199 133.62C60.8379 133.526 60.6932 133.4 60.5859 133.242C60.4785 133.083 60.4249 132.906 60.4249 132.71C60.4249 132.458 60.4879 132.259 60.6139 132.115C60.7445 131.97 60.9569 131.867 61.2509 131.807C61.5495 131.746 61.9555 131.716 62.4689 131.716H62.7839V132.087H62.4759C62.0979 132.087 61.7992 132.105 61.5799 132.143C61.3652 132.175 61.2135 132.234 61.1249 132.318C61.0409 132.402 60.9989 132.521 60.9989 132.675C60.9989 132.866 61.0642 133.022 61.1949 133.144C61.3302 133.265 61.5122 133.326 61.7409 133.326C61.9275 133.326 62.0909 133.281 62.2309 133.193C62.3755 133.104 62.4875 132.983 62.5669 132.829C62.6509 132.675 62.6929 132.497 62.6929 132.297V131.499C62.6929 131.209 62.6345 131.002 62.5179 130.876C62.4012 130.745 62.2099 130.68 61.9439 130.68C61.7805 130.68 61.6172 130.701 61.4539 130.743C61.2905 130.785 61.1179 130.852 60.9359 130.946C60.8705 130.978 60.8145 130.99 60.7679 130.981C60.7212 130.967 60.6839 130.941 60.6559 130.904C60.6279 130.866 60.6115 130.824 60.6069 130.778C60.6022 130.726 60.6115 130.677 60.6349 130.631C60.6629 130.584 60.7049 130.547 60.7609 130.519C60.9662 130.416 61.1692 130.341 61.3699 130.295C61.5705 130.248 61.7619 130.225 61.9439 130.225C62.2379 130.225 62.4805 130.274 62.6719 130.372C62.8632 130.465 63.0055 130.61 63.0989 130.806C63.1922 130.997 63.2389 131.244 63.2389 131.548V133.445C63.2389 133.538 63.2155 133.61 63.1689 133.662C63.1269 133.713 63.0639 133.739 62.9799 133.739C62.8912 133.739 62.8235 133.713 62.7769 133.662C62.7302 133.61 62.7069 133.538 62.7069 133.445V132.899H62.7699C62.7325 133.076 62.6602 133.228 62.5529 133.354C62.4502 133.48 62.3219 133.578 62.1679 133.648C62.0139 133.718 61.8412 133.753 61.6499 133.753ZM65.6558 133.753C65.3898 133.753 65.1658 133.706 64.9838 133.613C64.8065 133.515 64.6735 133.375 64.5848 133.193C64.4961 133.006 64.4518 132.78 64.4518 132.514V130.729H63.9828C63.9035 130.729 63.8428 130.71 63.8008 130.673C63.7588 130.631 63.7378 130.575 63.7378 130.505C63.7378 130.435 63.7588 130.381 63.8008 130.344C63.8428 130.306 63.9035 130.288 63.9828 130.288H64.4518V129.483C64.4518 129.389 64.4775 129.319 64.5288 129.273C64.5801 129.221 64.6501 129.196 64.7388 129.196C64.8275 129.196 64.8951 129.221 64.9418 129.273C64.9931 129.319 65.0188 129.389 65.0188 129.483V130.288H65.9008C65.9801 130.288 66.0408 130.306 66.0828 130.344C66.1248 130.381 66.1458 130.435 66.1458 130.505C66.1458 130.575 66.1248 130.631 66.0828 130.673C66.0408 130.71 65.9801 130.729 65.9008 130.729H65.0188V132.458C65.0188 132.724 65.0748 132.927 65.1868 133.067C65.2988 133.202 65.4808 133.27 65.7328 133.27C65.8215 133.27 65.8961 133.26 65.9568 133.242C66.0221 133.223 66.0758 133.214 66.1178 133.214C66.1598 133.209 66.1948 133.223 66.2228 133.256C66.2508 133.288 66.2648 133.344 66.2648 133.424C66.2648 133.48 66.2531 133.531 66.2298 133.578C66.2111 133.624 66.1761 133.657 66.1248 133.676C66.0688 133.694 65.9941 133.711 65.9008 133.725C65.8121 133.743 65.7305 133.753 65.6558 133.753ZM68.2369 133.753C67.8775 133.753 67.5672 133.683 67.3059 133.543C67.0492 133.398 66.8485 133.195 66.7039 132.934C66.5639 132.672 66.4939 132.36 66.4939 131.996C66.4939 131.641 66.5639 131.333 66.7039 131.072C66.8439 130.806 67.0352 130.598 67.2779 130.449C67.5252 130.299 67.8099 130.225 68.1319 130.225C68.3605 130.225 68.5659 130.264 68.7479 130.344C68.9299 130.418 69.0839 130.528 69.2099 130.673C69.3405 130.817 69.4385 130.992 69.5039 131.198C69.5739 131.403 69.6089 131.634 69.6089 131.891C69.6089 131.965 69.5879 132.021 69.5459 132.059C69.5039 132.091 69.4432 132.108 69.3639 132.108H66.9279V131.737H69.2309L69.1189 131.828C69.1189 131.576 69.0815 131.363 69.0069 131.191C68.9322 131.013 68.8225 130.878 68.6779 130.785C68.5379 130.691 68.3605 130.645 68.1459 130.645C67.9079 130.645 67.7049 130.701 67.5369 130.813C67.3735 130.92 67.2499 131.072 67.1659 131.268C67.0819 131.459 67.0399 131.683 67.0399 131.94V131.982C67.0399 132.411 67.1425 132.738 67.3479 132.962C67.5579 133.186 67.8542 133.298 68.2369 133.298C68.3955 133.298 68.5519 133.277 68.7059 133.235C68.8645 133.193 69.0185 133.123 69.1679 133.025C69.2332 132.983 69.2915 132.964 69.3429 132.969C69.3989 132.969 69.4432 132.985 69.4759 133.018C69.5085 133.046 69.5295 133.083 69.5389 133.13C69.5529 133.172 69.5482 133.218 69.5249 133.27C69.5062 133.321 69.4665 133.365 69.4059 133.403C69.2519 133.515 69.0699 133.601 68.8599 133.662C68.6499 133.722 68.4422 133.753 68.2369 133.753ZM71.7245 133.753C71.4211 133.753 71.1551 133.68 70.9265 133.536C70.7025 133.391 70.5275 133.188 70.4015 132.927C70.2801 132.661 70.2195 132.348 70.2195 131.989C70.2195 131.625 70.2801 131.312 70.4015 131.051C70.5275 130.785 70.7025 130.582 70.9265 130.442C71.1551 130.297 71.4211 130.225 71.7245 130.225C72.0325 130.225 72.2961 130.302 72.5155 130.456C72.7348 130.61 72.8818 130.817 72.9565 131.079H72.8795V128.993C72.8795 128.899 72.9028 128.829 72.9495 128.783C73.0008 128.731 73.0731 128.706 73.1665 128.706C73.2551 128.706 73.3228 128.731 73.3695 128.783C73.4208 128.829 73.4465 128.899 73.4465 128.993V133.445C73.4465 133.538 73.4231 133.61 73.3765 133.662C73.3298 133.713 73.2598 133.739 73.1665 133.739C73.0778 133.739 73.0078 133.713 72.9565 133.662C72.9098 133.61 72.8865 133.538 72.8865 133.445V132.78L72.9635 132.878C72.8888 133.144 72.7395 133.356 72.5155 133.515C72.2961 133.673 72.0325 133.753 71.7245 133.753ZM71.8435 133.298C72.0535 133.298 72.2378 133.246 72.3965 133.144C72.5551 133.041 72.6765 132.892 72.7605 132.696C72.8491 132.5 72.8935 132.264 72.8935 131.989C72.8935 131.564 72.7978 131.24 72.6065 131.016C72.4198 130.792 72.1655 130.68 71.8435 130.68C71.6288 130.68 71.4421 130.731 71.2835 130.834C71.1295 130.932 71.0081 131.079 70.9195 131.275C70.8355 131.466 70.7935 131.704 70.7935 131.989C70.7935 132.409 70.8891 132.733 71.0805 132.962C71.2718 133.186 71.5261 133.298 71.8435 133.298Z" fill="black"/>
<path d="M34.6447 175.346C34.556 175.346 34.4884 175.323 34.4417 175.276C34.395 175.225 34.3717 175.153 34.3717 175.059V170.607C34.3717 170.514 34.395 170.442 34.4417 170.39C34.4884 170.339 34.549 170.313 34.6237 170.313C34.6984 170.313 34.752 170.327 34.7847 170.355C34.822 170.379 34.864 170.423 34.9107 170.488L37.9627 174.555H37.7947V170.593C37.7947 170.505 37.818 170.437 37.8647 170.39C37.9114 170.339 37.979 170.313 38.0677 170.313C38.1517 170.313 38.2147 170.339 38.2567 170.39C38.3034 170.437 38.3267 170.505 38.3267 170.593V175.066C38.3267 175.155 38.3057 175.225 38.2637 175.276C38.2264 175.323 38.1704 175.346 38.0957 175.346C38.0257 175.346 37.9697 175.332 37.9277 175.304C37.8857 175.276 37.8414 175.232 37.7947 175.171L34.7497 171.104H34.9107V175.059C34.9107 175.153 34.8874 175.225 34.8407 175.276C34.794 175.323 34.7287 175.346 34.6447 175.346ZM41.0093 175.36C40.65 175.36 40.3397 175.29 40.0783 175.15C39.8217 175.006 39.621 174.803 39.4763 174.541C39.3363 174.28 39.2663 173.967 39.2663 173.603C39.2663 173.249 39.3363 172.941 39.4763 172.679C39.6163 172.413 39.8077 172.206 40.0503 172.056C40.2977 171.907 40.5823 171.832 40.9043 171.832C41.133 171.832 41.3383 171.872 41.5203 171.951C41.7023 172.026 41.8563 172.136 41.9823 172.28C42.113 172.425 42.211 172.6 42.2763 172.805C42.3463 173.011 42.3813 173.242 42.3813 173.498C42.3813 173.573 42.3603 173.629 42.3183 173.666C42.2763 173.699 42.2157 173.715 42.1363 173.715H39.7003V173.344H42.0033L41.8913 173.435C41.8913 173.183 41.854 172.971 41.7793 172.798C41.7047 172.621 41.595 172.486 41.4503 172.392C41.3103 172.299 41.133 172.252 40.9183 172.252C40.6803 172.252 40.4773 172.308 40.3093 172.42C40.146 172.528 40.0223 172.679 39.9383 172.875C39.8543 173.067 39.8123 173.291 39.8123 173.547V173.589C39.8123 174.019 39.915 174.345 40.1203 174.569C40.3303 174.793 40.6267 174.905 41.0093 174.905C41.168 174.905 41.3243 174.884 41.4783 174.842C41.637 174.8 41.791 174.73 41.9403 174.632C42.0057 174.59 42.064 174.572 42.1153 174.576C42.1713 174.576 42.2157 174.593 42.2483 174.625C42.281 174.653 42.302 174.691 42.3113 174.737C42.3253 174.779 42.3207 174.826 42.2973 174.877C42.2787 174.929 42.239 174.973 42.1783 175.01C42.0243 175.122 41.8423 175.209 41.6323 175.269C41.4223 175.33 41.2147 175.36 41.0093 175.36ZM43.1886 175.339C43.1279 175.339 43.0742 175.321 43.0276 175.283C42.9809 175.246 42.9552 175.197 42.9506 175.136C42.9506 175.071 42.9809 175.003 43.0416 174.933L44.2666 173.393V173.687L43.1186 172.252C43.0579 172.178 43.0276 172.11 43.0276 172.049C43.0322 171.989 43.0579 171.94 43.1046 171.902C43.1512 171.865 43.2049 171.846 43.2656 171.846C43.3356 171.846 43.3939 171.86 43.4406 171.888C43.4919 171.912 43.5386 171.951 43.5806 172.007L44.5816 173.274H44.3856L45.3936 172.007C45.4356 171.951 45.4799 171.912 45.5266 171.888C45.5732 171.86 45.6316 171.846 45.7016 171.846C45.7669 171.846 45.8206 171.865 45.8626 171.902C45.9092 171.94 45.9326 171.991 45.9326 172.056C45.9372 172.117 45.9092 172.185 45.8486 172.259L44.7076 173.673V173.414L45.9326 174.933C45.9886 175.003 46.0142 175.071 46.0096 175.136C46.0096 175.197 45.9862 175.246 45.9396 175.283C45.8929 175.321 45.8369 175.339 45.7716 175.339C45.7062 175.339 45.6479 175.325 45.5966 175.297C45.5499 175.274 45.5032 175.234 45.4566 175.178L44.3786 173.82H44.5816L43.5036 175.178C43.4616 175.23 43.4149 175.269 43.3636 175.297C43.3169 175.325 43.2586 175.339 43.1886 175.339ZM48.2173 175.36C47.9513 175.36 47.7273 175.314 47.5453 175.22C47.368 175.122 47.235 174.982 47.1463 174.8C47.0576 174.614 47.0133 174.387 47.0133 174.121V172.336H46.5443C46.465 172.336 46.4043 172.318 46.3623 172.28C46.3203 172.238 46.2993 172.182 46.2993 172.112C46.2993 172.042 46.3203 171.989 46.3623 171.951C46.4043 171.914 46.465 171.895 46.5443 171.895H47.0133V171.09C47.0133 170.997 47.039 170.927 47.0903 170.88C47.1416 170.829 47.2116 170.803 47.3003 170.803C47.389 170.803 47.4566 170.829 47.5033 170.88C47.5546 170.927 47.5803 170.997 47.5803 171.09V171.895H48.4623C48.5416 171.895 48.6023 171.914 48.6443 171.951C48.6863 171.989 48.7073 172.042 48.7073 172.112C48.7073 172.182 48.6863 172.238 48.6443 172.28C48.6023 172.318 48.5416 172.336 48.4623 172.336H47.5803V174.065C47.5803 174.331 47.6363 174.534 47.7483 174.674C47.8603 174.81 48.0423 174.877 48.2943 174.877C48.383 174.877 48.4576 174.868 48.5183 174.849C48.5836 174.831 48.6373 174.821 48.6793 174.821C48.7213 174.817 48.7563 174.831 48.7843 174.863C48.8123 174.896 48.8263 174.952 48.8263 175.031C48.8263 175.087 48.8146 175.139 48.7913 175.185C48.7726 175.232 48.7376 175.265 48.6863 175.283C48.6303 175.302 48.5556 175.318 48.4623 175.332C48.3736 175.351 48.292 175.36 48.2173 175.36ZM53.3163 175.36C52.8309 175.36 52.4156 175.258 52.0703 175.052C51.7249 174.847 51.4589 174.555 51.2723 174.177C51.0903 173.799 50.9993 173.349 50.9993 172.826C50.9993 172.434 51.0506 172.084 51.1533 171.776C51.2606 171.464 51.4123 171.2 51.6083 170.985C51.8089 170.766 52.0539 170.598 52.3433 170.481C52.6326 170.36 52.9569 170.299 53.3163 170.299C53.6056 170.299 53.8809 170.341 54.1423 170.425C54.4036 170.505 54.6299 170.624 54.8213 170.782C54.8819 170.829 54.9216 170.883 54.9403 170.943C54.9636 170.999 54.9659 171.055 54.9473 171.111C54.9333 171.163 54.9053 171.207 54.8633 171.244C54.8259 171.277 54.7793 171.293 54.7233 171.293C54.6673 171.293 54.6043 171.27 54.5343 171.223C54.3663 171.088 54.1819 170.988 53.9813 170.922C53.7806 170.857 53.5636 170.824 53.3303 170.824C52.9616 170.824 52.6489 170.904 52.3923 171.062C52.1356 171.216 51.9419 171.443 51.8113 171.741C51.6806 172.04 51.6153 172.402 51.6153 172.826C51.6153 173.251 51.6806 173.615 51.8113 173.918C51.9419 174.217 52.1356 174.446 52.3923 174.604C52.6489 174.758 52.9616 174.835 53.3303 174.835C53.5589 174.835 53.7759 174.803 53.9813 174.737C54.1866 174.667 54.3756 174.565 54.5483 174.429C54.6183 174.383 54.6813 174.362 54.7373 174.366C54.7933 174.366 54.8399 174.383 54.8773 174.415C54.9146 174.448 54.9403 174.49 54.9543 174.541C54.9729 174.593 54.9729 174.646 54.9543 174.702C54.9403 174.758 54.9053 174.807 54.8493 174.849C54.6533 175.017 54.4223 175.146 54.1563 175.234C53.8949 175.318 53.6149 175.36 53.3163 175.36ZM56.9821 175.36C56.6508 175.36 56.3638 175.288 56.1211 175.143C55.8785 174.999 55.6895 174.796 55.5541 174.534C55.4235 174.268 55.3581 173.956 55.3581 173.596C55.3581 173.326 55.3955 173.083 55.4701 172.868C55.5448 172.649 55.6545 172.462 55.7991 172.308C55.9438 172.154 56.1141 172.038 56.3101 171.958C56.5108 171.874 56.7348 171.832 56.9821 171.832C57.3135 171.832 57.6005 171.905 57.8431 172.049C58.0858 172.194 58.2725 172.399 58.4031 172.665C58.5385 172.927 58.6061 173.237 58.6061 173.596C58.6061 173.867 58.5688 174.11 58.4941 174.324C58.4195 174.539 58.3098 174.726 58.1651 174.884C58.0205 175.038 57.8478 175.157 57.6471 175.241C57.4511 175.321 57.2295 175.36 56.9821 175.36ZM56.9821 174.905C57.1921 174.905 57.3765 174.854 57.5351 174.751C57.6938 174.649 57.8151 174.499 57.8991 174.303C57.9878 174.107 58.0321 173.872 58.0321 173.596C58.0321 173.172 57.9365 172.847 57.7451 172.623C57.5585 172.399 57.3041 172.287 56.9821 172.287C56.7675 172.287 56.5808 172.339 56.4221 172.441C56.2681 172.539 56.1468 172.686 56.0581 172.882C55.9741 173.074 55.9321 173.312 55.9321 173.596C55.9321 174.016 56.0278 174.341 56.2191 174.569C56.4105 174.793 56.6648 174.905 56.9821 174.905ZM59.7378 175.346C59.6444 175.346 59.5744 175.321 59.5278 175.269C59.4811 175.218 59.4578 175.146 59.4578 175.052V172.133C59.4578 172.04 59.4811 171.97 59.5278 171.923C59.5744 171.872 59.6421 171.846 59.7308 171.846C59.8194 171.846 59.8871 171.872 59.9338 171.923C59.9851 171.97 60.0108 172.04 60.0108 172.133V172.735L59.9338 172.651C60.0318 172.381 60.1904 172.178 60.4098 172.042C60.6338 171.902 60.8904 171.832 61.1798 171.832C61.4504 171.832 61.6744 171.881 61.8518 171.979C62.0338 172.077 62.1691 172.227 62.2578 172.427C62.3464 172.623 62.3908 172.873 62.3908 173.176V175.052C62.3908 175.146 62.3651 175.218 62.3138 175.269C62.2671 175.321 62.1994 175.346 62.1108 175.346C62.0174 175.346 61.9451 175.321 61.8938 175.269C61.8471 175.218 61.8238 175.146 61.8238 175.052V173.211C61.8238 172.894 61.7608 172.663 61.6348 172.518C61.5134 172.369 61.3174 172.294 61.0468 172.294C60.7341 172.294 60.4844 172.392 60.2978 172.588C60.1158 172.78 60.0248 173.036 60.0248 173.358V175.052C60.0248 175.248 59.9291 175.346 59.7378 175.346ZM64.8013 175.36C64.5353 175.36 64.3113 175.314 64.1293 175.22C63.952 175.122 63.819 174.982 63.7303 174.8C63.6416 174.614 63.5973 174.387 63.5973 174.121V172.336H63.1283C63.049 172.336 62.9883 172.318 62.9463 172.28C62.9043 172.238 62.8833 172.182 62.8833 172.112C62.8833 172.042 62.9043 171.989 62.9463 171.951C62.9883 171.914 63.049 171.895 63.1283 171.895H63.5973V171.09C63.5973 170.997 63.623 170.927 63.6743 170.88C63.7256 170.829 63.7956 170.803 63.8843 170.803C63.973 170.803 64.0406 170.829 64.0873 170.88C64.1386 170.927 64.1643 170.997 64.1643 171.09V171.895H65.0463C65.1256 171.895 65.1863 171.914 65.2283 171.951C65.2703 171.989 65.2913 172.042 65.2913 172.112C65.2913 172.182 65.2703 172.238 65.2283 172.28C65.1863 172.318 65.1256 172.336 65.0463 172.336H64.1643V174.065C64.1643 174.331 64.2203 174.534 64.3323 174.674C64.4443 174.81 64.6263 174.877 64.8783 174.877C64.967 174.877 65.0416 174.868 65.1023 174.849C65.1676 174.831 65.2213 174.821 65.2633 174.821C65.3053 174.817 65.3403 174.831 65.3683 174.863C65.3963 174.896 65.4103 174.952 65.4103 175.031C65.4103 175.087 65.3986 175.139 65.3753 175.185C65.3566 175.232 65.3216 175.265 65.2703 175.283C65.2143 175.302 65.1396 175.318 65.0463 175.332C64.9576 175.351 64.876 175.36 64.8013 175.36ZM66.1706 175.346C66.0772 175.346 66.0049 175.321 65.9536 175.269C65.9069 175.218 65.8836 175.146 65.8836 175.052V172.133C65.8836 172.04 65.9069 171.97 65.9536 171.923C66.0002 171.872 66.0679 171.846 66.1566 171.846C66.2452 171.846 66.3129 171.872 66.3596 171.923C66.4109 171.97 66.4366 172.04 66.4366 172.133V172.7H66.3666C66.4412 172.425 66.5836 172.213 66.7936 172.063C67.0036 171.914 67.2626 171.835 67.5706 171.825C67.6406 171.821 67.6966 171.837 67.7386 171.874C67.7806 171.907 67.8039 171.965 67.8086 172.049C67.8132 172.129 67.7946 172.192 67.7526 172.238C67.7106 172.285 67.6452 172.313 67.5566 172.322L67.4446 172.336C67.1272 172.364 66.8822 172.467 66.7096 172.644C66.5416 172.817 66.4576 173.055 66.4576 173.358V175.052C66.4576 175.146 66.4319 175.218 66.3806 175.269C66.3339 175.321 66.2639 175.346 66.1706 175.346ZM68.6724 175.332C68.579 175.332 68.509 175.307 68.4624 175.255C68.4157 175.199 68.3924 175.122 68.3924 175.024V172.161C68.3924 172.063 68.4157 171.989 68.4624 171.937C68.509 171.886 68.579 171.86 68.6724 171.86C68.761 171.86 68.831 171.886 68.8824 171.937C68.9337 171.989 68.9594 172.063 68.9594 172.161V175.024C68.9594 175.122 68.9337 175.199 68.8824 175.255C68.8357 175.307 68.7657 175.332 68.6724 175.332ZM68.6724 171.076C68.5557 171.076 68.4647 171.046 68.3994 170.985C68.334 170.92 68.3014 170.834 68.3014 170.726C68.3014 170.614 68.334 170.53 68.3994 170.474C68.4647 170.414 68.5557 170.383 68.6724 170.383C68.7937 170.383 68.8847 170.414 68.9454 170.474C69.0107 170.53 69.0434 170.614 69.0434 170.726C69.0434 170.834 69.0107 170.92 68.9454 170.985C68.8847 171.046 68.7937 171.076 68.6724 171.076ZM71.7413 175.36C71.4333 175.36 71.1673 175.281 70.9433 175.122C70.724 174.964 70.577 174.751 70.5023 174.485L70.5793 174.408V175.052C70.5793 175.146 70.5536 175.218 70.5023 175.269C70.4556 175.321 70.388 175.346 70.2993 175.346C70.206 175.346 70.136 175.321 70.0893 175.269C70.0426 175.218 70.0193 175.146 70.0193 175.052V170.6C70.0193 170.507 70.0426 170.437 70.0893 170.39C70.136 170.339 70.206 170.313 70.2993 170.313C70.388 170.313 70.458 170.339 70.5093 170.39C70.5606 170.437 70.5863 170.507 70.5863 170.6V172.686H70.5023C70.5816 172.425 70.731 172.217 70.9503 172.063C71.1696 171.909 71.4333 171.832 71.7413 171.832C72.0493 171.832 72.3153 171.905 72.5393 172.049C72.7633 172.189 72.936 172.392 73.0573 172.658C73.1833 172.92 73.2463 173.232 73.2463 173.596C73.2463 173.956 73.1833 174.268 73.0573 174.534C72.936 174.796 72.761 174.999 72.5323 175.143C72.3083 175.288 72.0446 175.36 71.7413 175.36ZM71.6223 174.905C71.837 174.905 72.0213 174.854 72.1753 174.751C72.334 174.649 72.4553 174.499 72.5393 174.303C72.628 174.107 72.6723 173.872 72.6723 173.596C72.6723 173.172 72.5766 172.847 72.3853 172.623C72.1986 172.399 71.9443 172.287 71.6223 172.287C71.4123 172.287 71.228 172.339 71.0693 172.441C70.9106 172.539 70.787 172.686 70.6983 172.882C70.6143 173.074 70.5723 173.312 70.5723 173.596C70.5723 174.016 70.668 174.341 70.8593 174.569C71.0506 174.793 71.305 174.905 71.6223 174.905ZM75.3044 175.36C75.029 175.36 74.8004 175.311 74.6184 175.213C74.441 175.111 74.3057 174.959 74.2124 174.758C74.1237 174.558 74.0794 174.308 74.0794 174.009V172.133C74.0794 172.035 74.1027 171.963 74.1494 171.916C74.2007 171.87 74.2707 171.846 74.3594 171.846C74.4527 171.846 74.5227 171.87 74.5694 171.916C74.6207 171.963 74.6464 172.035 74.6464 172.133V174.002C74.6464 174.301 74.707 174.525 74.8284 174.674C74.9544 174.819 75.1504 174.891 75.4164 174.891C75.7057 174.891 75.9414 174.793 76.1234 174.597C76.3054 174.401 76.3964 174.145 76.3964 173.827V172.133C76.3964 172.035 76.4197 171.963 76.4664 171.916C76.5177 171.87 76.59 171.846 76.6834 171.846C76.772 171.846 76.8397 171.87 76.8864 171.916C76.9377 171.963 76.9634 172.035 76.9634 172.133V175.052C76.9634 175.248 76.8724 175.346 76.6904 175.346C76.6017 175.346 76.5317 175.321 76.4804 175.269C76.4337 175.218 76.4104 175.146 76.4104 175.052V174.415L76.5014 174.513C76.408 174.789 76.254 174.999 76.0394 175.143C75.8294 175.288 75.5844 175.36 75.3044 175.36ZM79.3892 175.36C79.1232 175.36 78.8992 175.314 78.7172 175.22C78.5399 175.122 78.4069 174.982 78.3182 174.8C78.2295 174.614 78.1852 174.387 78.1852 174.121V172.336H77.7162C77.6369 172.336 77.5762 172.318 77.5342 172.28C77.4922 172.238 77.4712 172.182 77.4712 172.112C77.4712 172.042 77.4922 171.989 77.5342 171.951C77.5762 171.914 77.6369 171.895 77.7162 171.895H78.1852V171.09C78.1852 170.997 78.2109 170.927 78.2622 170.88C78.3135 170.829 78.3835 170.803 78.4722 170.803C78.5609 170.803 78.6285 170.829 78.6752 170.88C78.7265 170.927 78.7522 170.997 78.7522 171.09V171.895H79.6342C79.7135 171.895 79.7742 171.914 79.8162 171.951C79.8582 171.989 79.8792 172.042 79.8792 172.112C79.8792 172.182 79.8582 172.238 79.8162 172.28C79.7742 172.318 79.7135 172.336 79.6342 172.336H78.7522V174.065C78.7522 174.331 78.8082 174.534 78.9202 174.674C79.0322 174.81 79.2142 174.877 79.4662 174.877C79.5549 174.877 79.6295 174.868 79.6902 174.849C79.7555 174.831 79.8092 174.821 79.8512 174.821C79.8932 174.817 79.9282 174.831 79.9562 174.863C79.9842 174.896 79.9982 174.952 79.9982 175.031C79.9982 175.087 79.9865 175.139 79.9632 175.185C79.9445 175.232 79.9095 175.265 79.8582 175.283C79.8022 175.302 79.7275 175.318 79.6342 175.332C79.5455 175.351 79.4639 175.36 79.3892 175.36ZM80.7925 175.332C80.6991 175.332 80.6291 175.307 80.5825 175.255C80.5358 175.199 80.5125 175.122 80.5125 175.024V172.161C80.5125 172.063 80.5358 171.989 80.5825 171.937C80.6291 171.886 80.6991 171.86 80.7925 171.86C80.8811 171.86 80.9511 171.886 81.0025 171.937C81.0538 171.989 81.0795 172.063 81.0795 172.161V175.024C81.0795 175.122 81.0538 175.199 81.0025 175.255C80.9558 175.307 80.8858 175.332 80.7925 175.332ZM80.7925 171.076C80.6758 171.076 80.5848 171.046 80.5195 170.985C80.4541 170.92 80.4215 170.834 80.4215 170.726C80.4215 170.614 80.4541 170.53 80.5195 170.474C80.5848 170.414 80.6758 170.383 80.7925 170.383C80.9138 170.383 81.0048 170.414 81.0655 170.474C81.1308 170.53 81.1635 170.614 81.1635 170.726C81.1635 170.834 81.1308 170.92 81.0655 170.985C81.0048 171.046 80.9138 171.076 80.7925 171.076ZM83.5534 175.36C83.2221 175.36 82.9351 175.288 82.6924 175.143C82.4498 174.999 82.2608 174.796 82.1254 174.534C81.9948 174.268 81.9294 173.956 81.9294 173.596C81.9294 173.326 81.9668 173.083 82.0414 172.868C82.1161 172.649 82.2258 172.462 82.3704 172.308C82.5151 172.154 82.6854 172.038 82.8814 171.958C83.0821 171.874 83.3061 171.832 83.5534 171.832C83.8848 171.832 84.1718 171.905 84.4144 172.049C84.6571 172.194 84.8438 172.399 84.9744 172.665C85.1098 172.927 85.1774 173.237 85.1774 173.596C85.1774 173.867 85.1401 174.11 85.0654 174.324C84.9908 174.539 84.8811 174.726 84.7364 174.884C84.5918 175.038 84.4191 175.157 84.2184 175.241C84.0224 175.321 83.8008 175.36 83.5534 175.36ZM83.5534 174.905C83.7634 174.905 83.9478 174.854 84.1064 174.751C84.2651 174.649 84.3864 174.499 84.4704 174.303C84.5591 174.107 84.6034 173.872 84.6034 173.596C84.6034 173.172 84.5078 172.847 84.3164 172.623C84.1298 172.399 83.8754 172.287 83.5534 172.287C83.3388 172.287 83.1521 172.339 82.9934 172.441C82.8394 172.539 82.7181 172.686 82.6294 172.882C82.5454 173.074 82.5034 173.312 82.5034 173.596C82.5034 174.016 82.5991 174.341 82.7904 174.569C82.9818 174.793 83.2361 174.905 83.5534 174.905ZM86.3091 175.346C86.2157 175.346 86.1457 175.321 86.0991 175.269C86.0524 175.218 86.0291 175.146 86.0291 175.052V172.133C86.0291 172.04 86.0524 171.97 86.0991 171.923C86.1457 171.872 86.2134 171.846 86.3021 171.846C86.3907 171.846 86.4584 171.872 86.5051 171.923C86.5564 171.97 86.5821 172.04 86.5821 172.133V172.735L86.5051 172.651C86.6031 172.381 86.7617 172.178 86.9811 172.042C87.2051 171.902 87.4617 171.832 87.7511 171.832C88.0217 171.832 88.2457 171.881 88.4231 171.979C88.6051 172.077 88.7404 172.227 88.8291 172.427C88.9177 172.623 88.9621 172.873 88.9621 173.176V175.052C88.9621 175.146 88.9364 175.218 88.8851 175.269C88.8384 175.321 88.7707 175.346 88.6821 175.346C88.5887 175.346 88.5164 175.321 88.4651 175.269C88.4184 175.218 88.3951 175.146 88.3951 175.052V173.211C88.3951 172.894 88.3321 172.663 88.2061 172.518C88.0847 172.369 87.8887 172.294 87.6181 172.294C87.3054 172.294 87.0557 172.392 86.8691 172.588C86.6871 172.78 86.5961 173.036 86.5961 173.358V175.052C86.5961 175.248 86.5004 175.346 86.3091 175.346ZM92.2043 175.297C92.1016 175.297 92.0223 175.272 91.9663 175.22C91.9149 175.164 91.8893 175.085 91.8893 174.982V170.677C91.8893 170.575 91.9149 170.498 91.9663 170.446C92.0223 170.39 92.1016 170.362 92.2043 170.362H93.5553C94.3533 170.362 94.9693 170.572 95.4033 170.992C95.8373 171.412 96.0543 172.024 96.0543 172.826C96.0543 173.228 95.9983 173.582 95.8863 173.89C95.7789 174.194 95.6179 174.45 95.4033 174.66C95.1886 174.87 94.9273 175.029 94.6193 175.136C94.3113 175.244 93.9566 175.297 93.5553 175.297H92.2043ZM92.4633 174.807H93.5133C93.8399 174.807 94.1223 174.765 94.3603 174.681C94.6029 174.597 94.8036 174.474 94.9623 174.31C95.1256 174.147 95.2469 173.942 95.3263 173.694C95.4056 173.442 95.4453 173.153 95.4453 172.826C95.4453 172.168 95.2843 171.676 94.9623 171.349C94.6403 171.018 94.1573 170.852 93.5133 170.852H92.4633V174.807ZM98.0786 175.36C97.8453 175.36 97.6353 175.316 97.4486 175.227C97.2666 175.134 97.1219 175.008 97.0146 174.849C96.9073 174.691 96.8536 174.513 96.8536 174.317C96.8536 174.065 96.9166 173.867 97.0426 173.722C97.1733 173.578 97.3856 173.475 97.6796 173.414C97.9783 173.354 98.3843 173.323 98.8976 173.323H99.2126V173.694H98.9046C98.5266 173.694 98.2279 173.713 98.0086 173.75C97.7939 173.783 97.6423 173.841 97.5536 173.925C97.4696 174.009 97.4276 174.128 97.4276 174.282C97.4276 174.474 97.4929 174.63 97.6236 174.751C97.7589 174.873 97.9409 174.933 98.1696 174.933C98.3563 174.933 98.5196 174.889 98.6596 174.8C98.8043 174.712 98.9163 174.59 98.9956 174.436C99.0796 174.282 99.1216 174.105 99.1216 173.904V173.106C99.1216 172.817 99.0633 172.609 98.9466 172.483C98.8299 172.353 98.6386 172.287 98.3726 172.287C98.2093 172.287 98.0459 172.308 97.8826 172.35C97.7193 172.392 97.5466 172.46 97.3646 172.553C97.2993 172.586 97.2433 172.598 97.1966 172.588C97.1499 172.574 97.1126 172.549 97.0846 172.511C97.0566 172.474 97.0403 172.432 97.0356 172.385C97.0309 172.334 97.0403 172.285 97.0636 172.238C97.0916 172.192 97.1336 172.154 97.1896 172.126C97.3949 172.024 97.5979 171.949 97.7986 171.902C97.9993 171.856 98.1906 171.832 98.3726 171.832C98.6666 171.832 98.9093 171.881 99.1006 171.979C99.2919 172.073 99.4343 172.217 99.5276 172.413C99.6209 172.605 99.6676 172.852 99.6676 173.155V175.052C99.6676 175.146 99.6443 175.218 99.5976 175.269C99.5556 175.321 99.4926 175.346 99.4086 175.346C99.3199 175.346 99.2523 175.321 99.2056 175.269C99.1589 175.218 99.1356 175.146 99.1356 175.052V174.506H99.1986C99.1613 174.684 99.0889 174.835 98.9816 174.961C98.8789 175.087 98.7506 175.185 98.5966 175.255C98.4426 175.325 98.2699 175.36 98.0786 175.36ZM101.441 176.606C101.371 176.606 101.315 176.588 101.273 176.55C101.231 176.513 101.206 176.462 101.196 176.396C101.192 176.336 101.203 176.273 101.231 176.207L101.714 175.122V175.367L100.37 172.245C100.342 172.175 100.333 172.11 100.342 172.049C100.352 171.989 100.38 171.94 100.426 171.902C100.473 171.865 100.538 171.846 100.622 171.846C100.697 171.846 100.755 171.863 100.797 171.895C100.839 171.928 100.877 171.986 100.909 172.07L102.057 174.884H101.868L103.03 172.07C103.068 171.986 103.107 171.928 103.149 171.895C103.191 171.863 103.252 171.846 103.331 171.846C103.406 171.846 103.462 171.865 103.499 171.902C103.541 171.94 103.565 171.989 103.569 172.049C103.579 172.105 103.569 172.168 103.541 172.238L101.749 176.382C101.712 176.466 101.67 176.525 101.623 176.557C101.581 176.59 101.521 176.606 101.441 176.606Z" fill="black"/>
<path d="M37.3282 226.048C37.2322 226.048 37.1542 226.026 37.0942 225.982C37.0382 225.938 37.0042 225.88 36.9922 225.808C36.9802 225.732 36.9942 225.648 37.0342 225.556L38.6182 222.046C38.6702 221.93 38.7322 221.848 38.8042 221.8C38.8802 221.748 38.9662 221.722 39.0622 221.722C39.1542 221.722 39.2362 221.748 39.3082 221.8C39.3842 221.848 39.4482 221.93 39.5002 222.046L41.0902 225.556C41.1342 225.648 41.1502 225.732 41.1382 225.808C41.1262 225.884 41.0922 225.944 41.0362 225.988C40.9802 226.028 40.9062 226.048 40.8142 226.048C40.7022 226.048 40.6142 226.022 40.5502 225.97C40.4902 225.914 40.4362 225.83 40.3882 225.718L39.9982 224.812L40.3222 225.022H37.7902L38.1142 224.812L37.7302 225.718C37.6782 225.834 37.6242 225.918 37.5682 225.97C37.5122 226.022 37.4322 226.048 37.3282 226.048ZM39.0502 222.604L38.2102 224.602L38.0542 224.41H40.0582L39.9082 224.602L39.0622 222.604H39.0502ZM43.0058 226.06C42.6978 226.06 42.4298 225.998 42.2018 225.874C41.9738 225.746 41.7978 225.566 41.6738 225.334C41.5498 225.102 41.4878 224.83 41.4878 224.518C41.4878 224.282 41.5218 224.072 41.5898 223.888C41.6618 223.7 41.7638 223.542 41.8958 223.414C42.0278 223.282 42.1878 223.182 42.3758 223.114C42.5638 223.042 42.7738 223.006 43.0058 223.006C43.1378 223.006 43.2798 223.024 43.4318 223.06C43.5878 223.096 43.7338 223.156 43.8698 223.24C43.9338 223.28 43.9758 223.328 43.9958 223.384C44.0158 223.44 44.0198 223.498 44.0078 223.558C43.9958 223.614 43.9698 223.664 43.9298 223.708C43.8938 223.748 43.8478 223.774 43.7918 223.786C43.7358 223.794 43.6738 223.78 43.6058 223.744C43.5178 223.692 43.4278 223.654 43.3358 223.63C43.2438 223.602 43.1558 223.588 43.0718 223.588C42.9398 223.588 42.8238 223.61 42.7238 223.654C42.6238 223.694 42.5378 223.754 42.4658 223.834C42.3978 223.91 42.3458 224.006 42.3098 224.122C42.2738 224.238 42.2558 224.372 42.2558 224.524C42.2558 224.82 42.3258 225.054 42.4658 225.226C42.6098 225.394 42.8118 225.478 43.0718 225.478C43.1558 225.478 43.2418 225.466 43.3298 225.442C43.4218 225.418 43.5138 225.38 43.6058 225.328C43.6738 225.292 43.7338 225.28 43.7858 225.292C43.8418 225.304 43.8878 225.332 43.9238 225.376C43.9598 225.416 43.9818 225.466 43.9898 225.526C43.9978 225.582 43.9898 225.638 43.9658 225.694C43.9458 225.75 43.9058 225.796 43.8458 225.832C43.7138 225.912 43.5738 225.97 43.4258 226.006C43.2778 226.042 43.1378 226.06 43.0058 226.06ZM45.8356 226.06C45.5756 226.06 45.3576 226.016 45.1816 225.928C45.0096 225.84 44.8816 225.712 44.7976 225.544C44.7136 225.372 44.6716 225.16 44.6716 224.908V223.63H44.3596C44.2636 223.63 44.1896 223.606 44.1376 223.558C44.0856 223.506 44.0596 223.436 44.0596 223.348C44.0596 223.256 44.0856 223.186 44.1376 223.138C44.1896 223.09 44.2636 223.066 44.3596 223.066H44.6716V222.52C44.6716 222.396 44.7036 222.302 44.7676 222.238C44.8356 222.174 44.9296 222.142 45.0496 222.142C45.1696 222.142 45.2616 222.174 45.3256 222.238C45.3896 222.302 45.4216 222.396 45.4216 222.52V223.066H46.0576C46.1536 223.066 46.2276 223.09 46.2796 223.138C46.3316 223.186 46.3576 223.256 46.3576 223.348C46.3576 223.436 46.3316 223.506 46.2796 223.558C46.2276 223.606 46.1536 223.63 46.0576 223.63H45.4216V224.866C45.4216 225.058 45.4636 225.202 45.5476 225.298C45.6316 225.394 45.7676 225.442 45.9556 225.442C46.0236 225.442 46.0836 225.436 46.1356 225.424C46.1876 225.412 46.2336 225.404 46.2736 225.4C46.3216 225.396 46.3616 225.412 46.3936 225.448C46.4256 225.48 46.4416 225.548 46.4416 225.652C46.4416 225.732 46.4276 225.804 46.3996 225.868C46.3756 225.928 46.3296 225.97 46.2616 225.994C46.2096 226.01 46.1416 226.024 46.0576 226.036C45.9736 226.052 45.8996 226.06 45.8356 226.06ZM47.2425 226.042C47.1225 226.042 47.0305 226.006 46.9665 225.934C46.9025 225.862 46.8705 225.762 46.8705 225.634V223.432C46.8705 223.3 46.9025 223.2 46.9665 223.132C47.0305 223.06 47.1225 223.024 47.2425 223.024C47.3625 223.024 47.4545 223.06 47.5185 223.132C47.5865 223.2 47.6205 223.3 47.6205 223.432V225.634C47.6205 225.762 47.5885 225.862 47.5245 225.934C47.4605 226.006 47.3665 226.042 47.2425 226.042ZM47.2425 222.466C47.1025 222.466 46.9925 222.432 46.9125 222.364C46.8365 222.292 46.7985 222.194 46.7985 222.07C46.7985 221.942 46.8365 221.844 46.9125 221.776C46.9925 221.708 47.1025 221.674 47.2425 221.674C47.3865 221.674 47.4965 221.708 47.5725 221.776C47.6485 221.844 47.6865 221.942 47.6865 222.07C47.6865 222.194 47.6485 222.292 47.5725 222.364C47.4965 222.432 47.3865 222.466 47.2425 222.466ZM49.5878 226.048C49.4878 226.048 49.3998 226.022 49.3238 225.97C49.2518 225.918 49.1918 225.838 49.1438 225.73L48.1898 223.516C48.1538 223.428 48.1398 223.346 48.1478 223.27C48.1598 223.194 48.1958 223.134 48.2558 223.09C48.3198 223.042 48.4058 223.018 48.5138 223.018C48.6058 223.018 48.6798 223.04 48.7358 223.084C48.7918 223.124 48.8418 223.202 48.8858 223.318L49.6958 225.34H49.5158L50.3498 223.312C50.3938 223.2 50.4438 223.124 50.4998 223.084C50.5598 223.04 50.6398 223.018 50.7398 223.018C50.8278 223.018 50.8978 223.042 50.9498 223.09C51.0018 223.134 51.0338 223.194 51.0458 223.27C51.0578 223.342 51.0438 223.422 51.0038 223.51L50.0318 225.73C49.9878 225.838 49.9278 225.918 49.8518 225.97C49.7798 226.022 49.6918 226.048 49.5878 226.048ZM52.9512 226.06C52.6192 226.06 52.3332 225.998 52.0932 225.874C51.8532 225.75 51.6672 225.574 51.5352 225.346C51.4072 225.118 51.3432 224.848 51.3432 224.536C51.3432 224.232 51.4052 223.966 51.5292 223.738C51.6572 223.51 51.8312 223.332 52.0512 223.204C52.2752 223.072 52.5292 223.006 52.8132 223.006C53.0212 223.006 53.2072 223.04 53.3712 223.108C53.5392 223.176 53.6812 223.274 53.7972 223.402C53.9172 223.53 54.0072 223.686 54.0672 223.87C54.1312 224.05 54.1632 224.254 54.1632 224.482C54.1632 224.554 54.1372 224.61 54.0852 224.65C54.0372 224.686 53.9672 224.704 53.8752 224.704H51.9492V224.272H53.6352L53.5392 224.362C53.5392 224.178 53.5112 224.024 53.4552 223.9C53.4032 223.776 53.3252 223.682 53.2212 223.618C53.1212 223.55 52.9952 223.516 52.8432 223.516C52.6752 223.516 52.5312 223.556 52.4112 223.636C52.2952 223.712 52.2052 223.822 52.1412 223.966C52.0812 224.106 52.0512 224.274 52.0512 224.47V224.512C52.0512 224.84 52.1272 225.086 52.2792 225.25C52.4352 225.41 52.6632 225.49 52.9632 225.49C53.0672 225.49 53.1832 225.478 53.3112 225.454C53.4432 225.426 53.5672 225.38 53.6832 225.316C53.7672 225.268 53.8412 225.248 53.9052 225.256C53.9692 225.26 54.0192 225.282 54.0552 225.322C54.0952 225.362 54.1192 225.412 54.1272 225.472C54.1352 225.528 54.1232 225.586 54.0912 225.646C54.0632 225.706 54.0132 225.758 53.9412 225.802C53.8012 225.89 53.6392 225.956 53.4552 226C53.2752 226.04 53.1072 226.06 52.9512 226.06ZM58.4921 226.06C58.0241 226.06 57.6281 225.972 57.3041 225.796C56.9841 225.62 56.7401 225.37 56.5721 225.046C56.4041 224.722 56.3201 224.338 56.3201 223.894C56.3201 223.558 56.3681 223.256 56.4641 222.988C56.5641 222.72 56.7061 222.492 56.8901 222.304C57.0781 222.112 57.3061 221.966 57.5741 221.866C57.8421 221.762 58.1461 221.71 58.4861 221.71C58.7101 221.71 58.9341 221.738 59.1581 221.794C59.3861 221.846 59.6001 221.936 59.8001 222.064C59.8681 222.108 59.9121 222.162 59.9321 222.226C59.9561 222.29 59.9601 222.356 59.9441 222.424C59.9281 222.488 59.8981 222.544 59.8541 222.592C59.8101 222.64 59.7541 222.67 59.6861 222.682C59.6221 222.694 59.5501 222.678 59.4701 222.634C59.3181 222.546 59.1641 222.482 59.0081 222.442C58.8521 222.402 58.6781 222.382 58.4861 222.382C58.1901 222.382 57.9401 222.442 57.7361 222.562C57.5321 222.678 57.3781 222.848 57.2741 223.072C57.1741 223.296 57.1241 223.57 57.1241 223.894C57.1241 224.386 57.2421 224.76 57.4781 225.016C57.7141 225.272 58.0641 225.4 58.5281 225.4C58.6881 225.4 58.8501 225.384 59.0141 225.352C59.1781 225.32 59.3381 225.276 59.4941 225.22L59.3441 225.562V224.284H58.6841C58.5841 224.284 58.5061 224.258 58.4501 224.206C58.3981 224.154 58.3721 224.084 58.3721 223.996C58.3721 223.904 58.3981 223.834 58.4501 223.786C58.5061 223.738 58.5841 223.714 58.6841 223.714H59.6741C59.7741 223.714 59.8501 223.742 59.9021 223.798C59.9581 223.85 59.9861 223.926 59.9861 224.026V225.484C59.9861 225.572 59.9681 225.646 59.9321 225.706C59.9001 225.766 59.8461 225.81 59.7701 225.838C59.5941 225.902 59.3921 225.956 59.1641 226C58.9361 226.04 58.7121 226.06 58.4921 226.06ZM61.1881 226.048C61.0641 226.048 60.9681 226.016 60.9001 225.952C60.8361 225.884 60.8041 225.788 60.8041 225.664V223.396C60.8041 223.272 60.8361 223.178 60.9001 223.114C60.9641 223.05 61.0541 223.018 61.1701 223.018C61.2861 223.018 61.3761 223.05 61.4401 223.114C61.5041 223.178 61.5361 223.272 61.5361 223.396V223.774H61.4761C61.5321 223.534 61.6421 223.352 61.8061 223.228C61.9701 223.104 62.1881 223.03 62.4601 223.006C62.5441 222.998 62.6101 223.02 62.6581 223.072C62.7101 223.12 62.7401 223.196 62.7481 223.3C62.7561 223.4 62.7321 223.482 62.6761 223.546C62.6241 223.606 62.5441 223.642 62.4361 223.654L62.3041 223.666C62.0601 223.69 61.8761 223.766 61.7521 223.894C61.6281 224.018 61.5661 224.194 61.5661 224.422V225.664C61.5661 225.788 61.5341 225.884 61.4701 225.952C61.4061 226.016 61.3121 226.048 61.1881 226.048ZM64.4448 226.06C64.1408 226.06 63.8768 225.998 63.6528 225.874C63.4288 225.75 63.2548 225.574 63.1308 225.346C63.0068 225.114 62.9448 224.842 62.9448 224.53C62.9448 224.294 62.9788 224.084 63.0468 223.9C63.1188 223.712 63.2208 223.552 63.3528 223.42C63.4848 223.284 63.6428 223.182 63.8268 223.114C64.0108 223.042 64.2168 223.006 64.4448 223.006C64.7488 223.006 65.0128 223.068 65.2368 223.192C65.4608 223.316 65.6348 223.492 65.7588 223.72C65.8828 223.948 65.9448 224.218 65.9448 224.53C65.9448 224.766 65.9088 224.978 65.8368 225.166C65.7688 225.354 65.6688 225.516 65.5368 225.652C65.4048 225.784 65.2468 225.886 65.0628 225.958C64.8788 226.026 64.6728 226.06 64.4448 226.06ZM64.4448 225.49C64.5928 225.49 64.7228 225.454 64.8348 225.382C64.9468 225.31 65.0328 225.204 65.0928 225.064C65.1568 224.92 65.1888 224.742 65.1888 224.53C65.1888 224.21 65.1208 223.972 64.9848 223.816C64.8488 223.656 64.6688 223.576 64.4448 223.576C64.2968 223.576 64.1668 223.612 64.0548 223.684C63.9428 223.752 63.8548 223.858 63.7908 224.002C63.7308 224.142 63.7008 224.318 63.7008 224.53C63.7008 224.846 63.7688 225.086 63.9048 225.25C64.0408 225.41 64.2208 225.49 64.4448 225.49ZM67.6258 226.06C67.3818 226.06 67.1798 226.016 67.0198 225.928C66.8598 225.836 66.7398 225.7 66.6598 225.52C66.5838 225.34 66.5458 225.116 66.5458 224.848V223.396C66.5458 223.268 66.5778 223.174 66.6418 223.114C66.7058 223.05 66.7978 223.018 66.9178 223.018C67.0378 223.018 67.1298 223.05 67.1938 223.114C67.2618 223.174 67.2958 223.268 67.2958 223.396V224.86C67.2958 225.068 67.3378 225.222 67.4218 225.322C67.5058 225.422 67.6398 225.472 67.8238 225.472C68.0238 225.472 68.1878 225.404 68.3158 225.268C68.4438 225.128 68.5078 224.944 68.5078 224.716V223.396C68.5078 223.268 68.5398 223.174 68.6038 223.114C68.6678 223.05 68.7598 223.018 68.8798 223.018C68.9998 223.018 69.0918 223.05 69.1558 223.114C69.2238 223.174 69.2578 223.268 69.2578 223.396V225.664C69.2578 225.92 69.1358 226.048 68.8918 226.048C68.7758 226.048 68.6858 226.016 68.6218 225.952C68.5578 225.884 68.5258 225.788 68.5258 225.664V225.208L68.6098 225.388C68.5258 225.604 68.3978 225.77 68.2258 225.886C68.0578 226.002 67.8578 226.06 67.6258 226.06ZM70.4104 227.128C70.2904 227.128 70.1984 227.096 70.1344 227.032C70.0704 226.968 70.0384 226.874 70.0384 226.75V223.396C70.0384 223.272 70.0704 223.178 70.1344 223.114C70.1984 223.05 70.2884 223.018 70.4044 223.018C70.5244 223.018 70.6164 223.05 70.6804 223.114C70.7444 223.178 70.7764 223.272 70.7764 223.396V223.864L70.7104 223.684C70.7704 223.48 70.8924 223.316 71.0764 223.192C71.2644 223.068 71.4824 223.006 71.7304 223.006C71.9864 223.006 72.2104 223.068 72.4024 223.192C72.5984 223.316 72.7504 223.492 72.8584 223.72C72.9664 223.944 73.0204 224.214 73.0204 224.53C73.0204 224.842 72.9664 225.114 72.8584 225.346C72.7504 225.574 72.6004 225.75 72.4084 225.874C72.2164 225.998 71.9904 226.06 71.7304 226.06C71.4864 226.06 71.2724 226 71.0884 225.88C70.9044 225.756 70.7804 225.596 70.7164 225.4H70.7884V226.75C70.7884 226.874 70.7544 226.968 70.6864 227.032C70.6224 227.096 70.5304 227.128 70.4104 227.128ZM71.5204 225.49C71.6684 225.49 71.7984 225.454 71.9104 225.382C72.0224 225.31 72.1084 225.204 72.1684 225.064C72.2324 224.92 72.2644 224.742 72.2644 224.53C72.2644 224.21 72.1964 223.972 72.0604 223.816C71.9244 223.656 71.7444 223.576 71.5204 223.576C71.3724 223.576 71.2424 223.612 71.1304 223.684C71.0184 223.752 70.9304 223.858 70.8664 224.002C70.8064 224.142 70.7764 224.318 70.7764 224.53C70.7764 224.846 70.8444 225.086 70.9804 225.25C71.1164 225.41 71.2964 225.49 71.5204 225.49ZM74.7101 226.06C74.5381 226.06 74.3561 226.042 74.1641 226.006C73.9721 225.97 73.8001 225.908 73.6481 225.82C73.5841 225.78 73.5381 225.734 73.5101 225.682C73.4861 225.626 73.4761 225.572 73.4801 225.52C73.4881 225.464 73.5081 225.416 73.5401 225.376C73.5761 225.336 73.6201 225.31 73.6721 225.298C73.7281 225.286 73.7881 225.296 73.8521 225.328C74.0121 225.404 74.1621 225.458 74.3021 225.49C74.4421 225.518 74.5801 225.532 74.7161 225.532C74.9081 225.532 75.0501 225.5 75.1421 225.436C75.2381 225.368 75.2861 225.28 75.2861 225.172C75.2861 225.08 75.2541 225.01 75.1901 224.962C75.1301 224.91 75.0381 224.872 74.9141 224.848L74.3141 224.734C74.0661 224.686 73.8761 224.596 73.7441 224.464C73.6161 224.328 73.5521 224.154 73.5521 223.942C73.5521 223.75 73.6041 223.584 73.7081 223.444C73.8161 223.304 73.9641 223.196 74.1521 223.12C74.3401 223.044 74.5561 223.006 74.8001 223.006C74.9761 223.006 75.1401 223.026 75.2921 223.066C75.4481 223.102 75.5981 223.16 75.7421 223.24C75.8021 223.272 75.8421 223.314 75.8621 223.366C75.8861 223.418 75.8921 223.472 75.8801 223.528C75.8681 223.58 75.8441 223.628 75.8081 223.672C75.7721 223.712 75.7261 223.738 75.6701 223.75C75.6181 223.758 75.5581 223.746 75.4901 223.714C75.3661 223.65 75.2461 223.604 75.1301 223.576C75.0181 223.548 74.9101 223.534 74.8061 223.534C74.6101 223.534 74.4641 223.568 74.3681 223.636C74.2761 223.704 74.2301 223.794 74.2301 223.906C74.2301 223.99 74.2581 224.06 74.3141 224.116C74.3701 224.172 74.4561 224.21 74.5721 224.23L75.1721 224.344C75.4321 224.392 75.6281 224.48 75.7601 224.608C75.8961 224.736 75.9641 224.908 75.9641 225.124C75.9641 225.416 75.8501 225.646 75.6221 225.814C75.3941 225.978 75.0901 226.06 74.7101 226.06Z" fill="white"/>
<path d="M45.836 156.072C45.5267 156.072 45.2147 156.027 44.9 155.936C44.5907 155.846 44.3213 155.712 44.092 155.536C44.0227 155.488 43.9773 155.435 43.956 155.376C43.9347 155.312 43.9293 155.254 43.94 155.2C43.956 155.142 43.9853 155.094 44.028 155.056C44.0707 155.014 44.1213 154.99 44.18 154.984C44.244 154.979 44.3133 155 44.388 155.048C44.6227 155.203 44.8573 155.315 45.092 155.384C45.3267 155.454 45.5693 155.488 45.82 155.488C46.092 155.488 46.3213 155.448 46.508 155.368C46.6947 155.288 46.836 155.171 46.932 155.016C47.028 154.856 47.076 154.662 47.076 154.432C47.076 154.102 46.9667 153.851 46.748 153.68C46.5293 153.51 46.212 153.424 45.796 153.424H45.228C45.1267 153.424 45.0493 153.4 44.996 153.352C44.9427 153.299 44.916 153.227 44.916 153.136C44.916 153.051 44.9427 152.984 44.996 152.936C45.0493 152.883 45.1267 152.856 45.228 152.856H45.74C45.9853 152.856 46.1933 152.814 46.364 152.728C46.54 152.643 46.676 152.523 46.772 152.368C46.868 152.208 46.916 152.016 46.916 151.792C46.916 151.494 46.82 151.267 46.628 151.112C46.436 150.952 46.1587 150.872 45.796 150.872C45.556 150.872 45.3293 150.907 45.116 150.976C44.9027 151.046 44.692 151.163 44.484 151.328C44.42 151.376 44.356 151.4 44.292 151.4C44.2333 151.395 44.1827 151.376 44.14 151.344C44.1027 151.307 44.0733 151.259 44.052 151.2C44.036 151.142 44.0387 151.083 44.06 151.024C44.0813 150.96 44.1267 150.902 44.196 150.848C44.4093 150.667 44.66 150.528 44.948 150.432C45.236 150.336 45.532 150.288 45.836 150.288C46.1987 150.288 46.508 150.347 46.764 150.464C47.0253 150.576 47.2253 150.742 47.364 150.96C47.5027 151.174 47.572 151.432 47.572 151.736C47.572 151.966 47.5267 152.176 47.436 152.368C47.3507 152.555 47.228 152.715 47.068 152.848C46.9133 152.982 46.724 153.078 46.5 153.136V153.048C46.8893 153.112 47.1907 153.272 47.404 153.528C47.6227 153.779 47.732 154.096 47.732 154.48C47.732 154.806 47.6547 155.088 47.5 155.328C47.3507 155.563 47.1347 155.747 46.852 155.88C46.5693 156.008 46.2307 156.072 45.836 156.072ZM50.1129 156.056C50.0062 156.056 49.9235 156.027 49.8649 155.968C49.8115 155.91 49.7849 155.827 49.7849 155.72V152.384C49.7849 152.278 49.8115 152.198 49.8649 152.144C49.9182 152.086 49.9955 152.056 50.0969 152.056C50.1982 152.056 50.2755 152.086 50.3289 152.144C50.3875 152.198 50.4169 152.278 50.4169 152.384V153.032H50.3369C50.4222 152.718 50.5849 152.475 50.8249 152.304C51.0649 152.134 51.3609 152.043 51.7129 152.032C51.7929 152.027 51.8569 152.046 51.9049 152.088C51.9529 152.126 51.9795 152.192 51.9849 152.288C51.9902 152.379 51.9689 152.451 51.9209 152.504C51.8729 152.558 51.7982 152.59 51.6969 152.6L51.5689 152.616C51.2062 152.648 50.9262 152.766 50.7289 152.968C50.5369 153.166 50.4409 153.438 50.4409 153.784V155.72C50.4409 155.827 50.4115 155.91 50.3529 155.968C50.2995 156.027 50.2195 156.056 50.1129 156.056ZM54.9652 156.072C54.6185 156.072 54.3145 155.99 54.0532 155.824C53.7972 155.659 53.5972 155.427 53.4532 155.128C53.3145 154.824 53.2452 154.467 53.2452 154.056C53.2452 153.64 53.3145 153.283 53.4532 152.984C53.5972 152.68 53.7972 152.448 54.0532 152.288C54.3145 152.123 54.6185 152.04 54.9652 152.04C55.3172 152.04 55.6185 152.128 55.8692 152.304C56.1199 152.48 56.2879 152.718 56.3732 153.016H56.2852V150.632C56.2852 150.526 56.3119 150.446 56.3652 150.392C56.4239 150.334 56.5065 150.304 56.6132 150.304C56.7145 150.304 56.7919 150.334 56.8452 150.392C56.9039 150.446 56.9332 150.526 56.9332 150.632V155.72C56.9332 155.827 56.9065 155.91 56.8532 155.968C56.7999 156.027 56.7199 156.056 56.6132 156.056C56.5119 156.056 56.4319 156.027 56.3732 155.968C56.3199 155.91 56.2932 155.827 56.2932 155.72V154.96L56.3812 155.072C56.2959 155.376 56.1252 155.619 55.8692 155.8C55.6185 155.982 55.3172 156.072 54.9652 156.072ZM55.1012 155.552C55.3412 155.552 55.5519 155.494 55.7332 155.376C55.9145 155.259 56.0532 155.088 56.1492 154.864C56.2505 154.64 56.3012 154.371 56.3012 154.056C56.3012 153.571 56.1919 153.2 55.9732 152.944C55.7599 152.688 55.4692 152.56 55.1012 152.56C54.8559 152.56 54.6425 152.619 54.4612 152.736C54.2852 152.848 54.1465 153.016 54.0452 153.24C53.9492 153.459 53.9012 153.731 53.9012 154.056C53.9012 154.536 54.0105 154.907 54.2292 155.168C54.4479 155.424 54.7385 155.552 55.1012 155.552ZM62.4198 156C62.3024 156 62.2118 155.971 62.1478 155.912C62.0891 155.848 62.0598 155.758 62.0598 155.64V150.72C62.0598 150.603 62.0891 150.515 62.1478 150.456C62.2118 150.392 62.3024 150.36 62.4198 150.36H63.9638C64.8758 150.36 65.5798 150.6 66.0758 151.08C66.5718 151.56 66.8198 152.259 66.8198 153.176C66.8198 153.635 66.7558 154.04 66.6278 154.392C66.5051 154.739 66.3211 155.032 66.0758 155.272C65.8304 155.512 65.5318 155.694 65.1798 155.816C64.8278 155.939 64.4224 156 63.9638 156H62.4198ZM62.7158 155.44H63.9158C64.2891 155.44 64.6118 155.392 64.8838 155.296C65.1611 155.2 65.3904 155.059 65.5718 154.872C65.7584 154.686 65.8971 154.451 65.9878 154.168C66.0784 153.88 66.1238 153.55 66.1238 153.176C66.1238 152.424 65.9398 151.862 65.5718 151.488C65.2038 151.11 64.6518 150.92 63.9158 150.92H62.7158V155.44ZM70.5412 156.072C70.1306 156.072 69.7759 155.992 69.4772 155.832C69.1839 155.667 68.9546 155.435 68.7892 155.136C68.6292 154.838 68.5492 154.48 68.5492 154.064C68.5492 153.659 68.6292 153.307 68.7892 153.008C68.9492 152.704 69.1679 152.467 69.4452 152.296C69.7279 152.126 70.0532 152.04 70.4212 152.04C70.6826 152.04 70.9172 152.086 71.1252 152.176C71.3332 152.262 71.5092 152.387 71.6532 152.552C71.8026 152.718 71.9146 152.918 71.9892 153.152C72.0692 153.387 72.1092 153.651 72.1092 153.944C72.1092 154.03 72.0852 154.094 72.0372 154.136C71.9892 154.174 71.9199 154.192 71.8292 154.192H69.0452V153.768H71.6772L71.5492 153.872C71.5492 153.584 71.5066 153.342 71.4212 153.144C71.3359 152.942 71.2106 152.787 71.0452 152.68C70.8852 152.574 70.6826 152.52 70.4372 152.52C70.1652 152.52 69.9332 152.584 69.7412 152.712C69.5546 152.835 69.4132 153.008 69.3172 153.232C69.2212 153.451 69.1732 153.707 69.1732 154V154.048C69.1732 154.539 69.2906 154.912 69.5252 155.168C69.7652 155.424 70.1039 155.552 70.5412 155.552C70.7226 155.552 70.9012 155.528 71.0772 155.48C71.2586 155.432 71.4346 155.352 71.6052 155.24C71.6799 155.192 71.7466 155.171 71.8052 155.176C71.8692 155.176 71.9199 155.195 71.9572 155.232C71.9946 155.264 72.0186 155.307 72.0292 155.36C72.0452 155.408 72.0399 155.462 72.0132 155.52C71.9919 155.579 71.9466 155.63 71.8772 155.672C71.7012 155.8 71.4932 155.899 71.2532 155.968C71.0132 156.038 70.7759 156.072 70.5412 156.072ZM75.5751 156.072C75.1857 156.072 74.8497 155.987 74.5671 155.816C74.2844 155.646 74.0657 155.408 73.9111 155.104C73.7617 154.795 73.6871 154.438 73.6871 154.032C73.6871 153.723 73.7297 153.446 73.8151 153.2C73.9004 152.955 74.0257 152.747 74.1911 152.576C74.3564 152.4 74.5537 152.267 74.7831 152.176C75.0177 152.086 75.2817 152.04 75.5751 152.04C75.7671 152.04 75.9671 152.07 76.1751 152.128C76.3831 152.187 76.5724 152.288 76.7431 152.432C76.7964 152.47 76.8311 152.515 76.8471 152.568C76.8631 152.622 76.8631 152.675 76.8471 152.728C76.8311 152.776 76.8044 152.819 76.7671 152.856C76.7297 152.888 76.6817 152.907 76.6231 152.912C76.5697 152.918 76.5137 152.899 76.4551 152.856C76.3164 152.75 76.1751 152.675 76.0311 152.632C75.8871 152.59 75.7484 152.568 75.6151 152.568C75.4071 152.568 75.2257 152.603 75.0711 152.672C74.9164 152.736 74.7857 152.83 74.6791 152.952C74.5724 153.075 74.4897 153.227 74.4311 153.408C74.3777 153.59 74.3511 153.8 74.3511 154.04C74.3511 154.504 74.4604 154.872 74.6791 155.144C74.8977 155.411 75.2097 155.544 75.6151 155.544C75.7484 155.544 75.8844 155.523 76.0231 155.48C76.1671 155.438 76.3111 155.363 76.4551 155.256C76.5137 155.214 76.5697 155.195 76.6231 155.2C76.6764 155.206 76.7217 155.227 76.7591 155.264C76.7964 155.296 76.8204 155.339 76.8311 155.392C76.8471 155.446 76.8471 155.499 76.8311 155.552C76.8151 155.6 76.7804 155.643 76.7271 155.68C76.5564 155.819 76.3697 155.92 76.1671 155.984C75.9644 156.043 75.7671 156.072 75.5751 156.072Z" fill="#5236FF"/>
<path d="M45.836 196.072C45.5267 196.072 45.2147 196.027 44.9 195.936C44.5907 195.846 44.3213 195.712 44.092 195.536C44.0227 195.488 43.9773 195.435 43.956 195.376C43.9347 195.312 43.9293 195.254 43.94 195.2C43.956 195.142 43.9853 195.094 44.028 195.056C44.0707 195.014 44.1213 194.99 44.18 194.984C44.244 194.979 44.3133 195 44.388 195.048C44.6227 195.203 44.8573 195.315 45.092 195.384C45.3267 195.454 45.5693 195.488 45.82 195.488C46.092 195.488 46.3213 195.448 46.508 195.368C46.6947 195.288 46.836 195.171 46.932 195.016C47.028 194.856 47.076 194.662 47.076 194.432C47.076 194.102 46.9667 193.851 46.748 193.68C46.5293 193.51 46.212 193.424 45.796 193.424H45.228C45.1267 193.424 45.0493 193.4 44.996 193.352C44.9427 193.299 44.916 193.227 44.916 193.136C44.916 193.051 44.9427 192.984 44.996 192.936C45.0493 192.883 45.1267 192.856 45.228 192.856H45.74C45.9853 192.856 46.1933 192.814 46.364 192.728C46.54 192.643 46.676 192.523 46.772 192.368C46.868 192.208 46.916 192.016 46.916 191.792C46.916 191.494 46.82 191.267 46.628 191.112C46.436 190.952 46.1587 190.872 45.796 190.872C45.556 190.872 45.3293 190.907 45.116 190.976C44.9027 191.046 44.692 191.163 44.484 191.328C44.42 191.376 44.356 191.4 44.292 191.4C44.2333 191.395 44.1827 191.376 44.14 191.344C44.1027 191.307 44.0733 191.259 44.052 191.2C44.036 191.142 44.0387 191.083 44.06 191.024C44.0813 190.96 44.1267 190.902 44.196 190.848C44.4093 190.667 44.66 190.528 44.948 190.432C45.236 190.336 45.532 190.288 45.836 190.288C46.1987 190.288 46.508 190.347 46.764 190.464C47.0253 190.576 47.2253 190.742 47.364 190.96C47.5027 191.174 47.572 191.432 47.572 191.736C47.572 191.966 47.5267 192.176 47.436 192.368C47.3507 192.555 47.228 192.715 47.068 192.848C46.9133 192.982 46.724 193.078 46.5 193.136V193.048C46.8893 193.112 47.1907 193.272 47.404 193.528C47.6227 193.779 47.732 194.096 47.732 194.48C47.732 194.806 47.6547 195.088 47.5 195.328C47.3507 195.563 47.1347 195.747 46.852 195.88C46.5693 196.008 46.2307 196.072 45.836 196.072ZM50.1129 196.056C50.0062 196.056 49.9235 196.027 49.8649 195.968C49.8115 195.91 49.7849 195.827 49.7849 195.72V192.384C49.7849 192.278 49.8115 192.198 49.8649 192.144C49.9182 192.086 49.9955 192.056 50.0969 192.056C50.1982 192.056 50.2755 192.086 50.3289 192.144C50.3875 192.198 50.4169 192.278 50.4169 192.384V193.032H50.3369C50.4222 192.718 50.5849 192.475 50.8249 192.304C51.0649 192.134 51.3609 192.043 51.7129 192.032C51.7929 192.027 51.8569 192.046 51.9049 192.088C51.9529 192.126 51.9795 192.192 51.9849 192.288C51.9902 192.379 51.9689 192.451 51.9209 192.504C51.8729 192.558 51.7982 192.59 51.6969 192.6L51.5689 192.616C51.2062 192.648 50.9262 192.766 50.7289 192.968C50.5369 193.166 50.4409 193.438 50.4409 193.784V195.72C50.4409 195.827 50.4115 195.91 50.3529 195.968C50.2995 196.027 50.2195 196.056 50.1129 196.056ZM54.9652 196.072C54.6185 196.072 54.3145 195.99 54.0532 195.824C53.7972 195.659 53.5972 195.427 53.4532 195.128C53.3145 194.824 53.2452 194.467 53.2452 194.056C53.2452 193.64 53.3145 193.283 53.4532 192.984C53.5972 192.68 53.7972 192.448 54.0532 192.288C54.3145 192.123 54.6185 192.04 54.9652 192.04C55.3172 192.04 55.6185 192.128 55.8692 192.304C56.1199 192.48 56.2879 192.718 56.3732 193.016H56.2852V190.632C56.2852 190.526 56.3119 190.446 56.3652 190.392C56.4239 190.334 56.5065 190.304 56.6132 190.304C56.7145 190.304 56.7919 190.334 56.8452 190.392C56.9039 190.446 56.9332 190.526 56.9332 190.632V195.72C56.9332 195.827 56.9065 195.91 56.8532 195.968C56.7999 196.027 56.7199 196.056 56.6132 196.056C56.5119 196.056 56.4319 196.027 56.3732 195.968C56.3199 195.91 56.2932 195.827 56.2932 195.72V194.96L56.3812 195.072C56.2959 195.376 56.1252 195.619 55.8692 195.8C55.6185 195.982 55.3172 196.072 54.9652 196.072ZM55.1012 195.552C55.3412 195.552 55.5519 195.494 55.7332 195.376C55.9145 195.259 56.0532 195.088 56.1492 194.864C56.2505 194.64 56.3012 194.371 56.3012 194.056C56.3012 193.571 56.1919 193.2 55.9732 192.944C55.7599 192.688 55.4692 192.56 55.1012 192.56C54.8559 192.56 54.6425 192.619 54.4612 192.736C54.2852 192.848 54.1465 193.016 54.0452 193.24C53.9492 193.459 53.9012 193.731 53.9012 194.056C53.9012 194.536 54.0105 194.907 54.2292 195.168C54.4479 195.424 54.7385 195.552 55.1012 195.552ZM62.4198 196C62.3024 196 62.2118 195.971 62.1478 195.912C62.0891 195.848 62.0598 195.758 62.0598 195.64V190.72C62.0598 190.603 62.0891 190.515 62.1478 190.456C62.2118 190.392 62.3024 190.36 62.4198 190.36H63.9638C64.8758 190.36 65.5798 190.6 66.0758 191.08C66.5718 191.56 66.8198 192.259 66.8198 193.176C66.8198 193.635 66.7558 194.04 66.6278 194.392C66.5051 194.739 66.3211 195.032 66.0758 195.272C65.8304 195.512 65.5318 195.694 65.1798 195.816C64.8278 195.939 64.4224 196 63.9638 196H62.4198ZM62.7158 195.44H63.9158C64.2891 195.44 64.6118 195.392 64.8838 195.296C65.1611 195.2 65.3904 195.059 65.5718 194.872C65.7584 194.686 65.8971 194.451 65.9878 194.168C66.0784 193.88 66.1238 193.55 66.1238 193.176C66.1238 192.424 65.9398 191.862 65.5718 191.488C65.2038 191.11 64.6518 190.92 63.9158 190.92H62.7158V195.44ZM70.5412 196.072C70.1306 196.072 69.7759 195.992 69.4772 195.832C69.1839 195.667 68.9546 195.435 68.7892 195.136C68.6292 194.838 68.5492 194.48 68.5492 194.064C68.5492 193.659 68.6292 193.307 68.7892 193.008C68.9492 192.704 69.1679 192.467 69.4452 192.296C69.7279 192.126 70.0532 192.04 70.4212 192.04C70.6826 192.04 70.9172 192.086 71.1252 192.176C71.3332 192.262 71.5092 192.387 71.6532 192.552C71.8026 192.718 71.9146 192.918 71.9892 193.152C72.0692 193.387 72.1092 193.651 72.1092 193.944C72.1092 194.03 72.0852 194.094 72.0372 194.136C71.9892 194.174 71.9199 194.192 71.8292 194.192H69.0452V193.768H71.6772L71.5492 193.872C71.5492 193.584 71.5066 193.342 71.4212 193.144C71.3359 192.942 71.2106 192.787 71.0452 192.68C70.8852 192.574 70.6826 192.52 70.4372 192.52C70.1652 192.52 69.9332 192.584 69.7412 192.712C69.5546 192.835 69.4132 193.008 69.3172 193.232C69.2212 193.451 69.1732 193.707 69.1732 194V194.048C69.1732 194.539 69.2906 194.912 69.5252 195.168C69.7652 195.424 70.1039 195.552 70.5412 195.552C70.7226 195.552 70.9012 195.528 71.0772 195.48C71.2586 195.432 71.4346 195.352 71.6052 195.24C71.6799 195.192 71.7466 195.171 71.8052 195.176C71.8692 195.176 71.9199 195.195 71.9572 195.232C71.9946 195.264 72.0186 195.307 72.0292 195.36C72.0452 195.408 72.0399 195.462 72.0132 195.52C71.9919 195.579 71.9466 195.63 71.8772 195.672C71.7012 195.8 71.4932 195.899 71.2532 195.968C71.0132 196.038 70.7759 196.072 70.5412 196.072ZM75.5751 196.072C75.1857 196.072 74.8497 195.987 74.5671 195.816C74.2844 195.646 74.0657 195.408 73.9111 195.104C73.7617 194.795 73.6871 194.438 73.6871 194.032C73.6871 193.723 73.7297 193.446 73.8151 193.2C73.9004 192.955 74.0257 192.747 74.1911 192.576C74.3564 192.4 74.5537 192.267 74.7831 192.176C75.0177 192.086 75.2817 192.04 75.5751 192.04C75.7671 192.04 75.9671 192.07 76.1751 192.128C76.3831 192.187 76.5724 192.288 76.7431 192.432C76.7964 192.47 76.8311 192.515 76.8471 192.568C76.8631 192.622 76.8631 192.675 76.8471 192.728C76.8311 192.776 76.8044 192.819 76.7671 192.856C76.7297 192.888 76.6817 192.907 76.6231 192.912C76.5697 192.918 76.5137 192.899 76.4551 192.856C76.3164 192.75 76.1751 192.675 76.0311 192.632C75.8871 192.59 75.7484 192.568 75.6151 192.568C75.4071 192.568 75.2257 192.603 75.0711 192.672C74.9164 192.736 74.7857 192.83 74.6791 192.952C74.5724 193.075 74.4897 193.227 74.4311 193.408C74.3777 193.59 74.3511 193.8 74.3511 194.04C74.3511 194.504 74.4604 194.872 74.6791 195.144C74.8977 195.411 75.2097 195.544 75.6151 195.544C75.7484 195.544 75.8844 195.523 76.0231 195.48C76.1671 195.438 76.3111 195.363 76.4551 195.256C76.5137 195.214 76.5697 195.195 76.6231 195.2C76.6764 195.206 76.7217 195.227 76.7591 195.264C76.7964 195.296 76.8204 195.339 76.8311 195.392C76.8471 195.446 76.8471 195.499 76.8311 195.552C76.8151 195.6 76.7804 195.643 76.7271 195.68C76.5564 195.819 76.3697 195.92 76.1671 195.984C75.9644 196.043 75.7671 196.072 75.5751 196.072Z" fill="#5236FF"/>
<g filter="url(#filter1_d_1230_1801)">
<rect x="175.01" y="68.7532" width="227.748" height="33.9431" rx="5" fill="#00FFFF"/>
</g>
<rect x="269.175" y="82.9873" width="16.4241" height="4.37976" rx="2.18988" fill="white"/>
<rect x="289.979" y="82.9873" width="15.3292" height="4.37976" rx="2.18988" fill="white"/>
<rect x="188.149" y="78.6074" width="13.1393" height="13.1393" rx="5" fill="#A87BFF"/>
<rect x="309.688" y="82.9873" width="16.4241" height="4.37976" rx="2.18988" fill="white"/>
<rect x="330.491" y="82.9873" width="16.4241" height="4.37976" rx="2.18988" fill="white"/>
<rect x="351.295" y="82.9873" width="16.4241" height="4.37976" rx="2.18988" fill="white"/>
<rect x="386.333" y="84.0823" width="4.37976" height="2.18988" rx="1.09494" fill="white"/>
<defs>
<filter id="filter0_d_1230_1801" x="0.243164" y="100.456" width="209.525" height="176.678" filterUnits="userSpaceOnUse" color-interpolation-filters="sRGB">
<feFlood flood-opacity="0" result="BackgroundImageFix"/>
<feColorMatrix in="SourceAlpha" type="matrix" values="0 0 0 0 0 0 0 0 0 0 0 0 0 0 0 0 0 0 127 0" result="hardAlpha"/>
<feOffset dx="5" dy="10"/>
<feGaussianBlur stdDeviation="10.5"/>
<feComposite in2="hardAlpha" operator="out"/>
<feColorMatrix type="matrix" values="0 0 0 0 0.700272 0 0 0 0 0.700272 0 0 0 0 0.700272 0 0 0 0.25 0"/>
<feBlend mode="normal" in2="BackgroundImageFix" result="effect1_dropShadow_1230_1801"/>
<feBlend mode="normal" in="SourceGraphic" in2="effect1_dropShadow_1230_1801" result="shape"/>
</filter>
<filter id="filter1_d_1230_1801" x="174.01" y="68.7532" width="241.747" height="47.9431" filterUnits="userSpaceOnUse" color-interpolation-filters="sRGB">
<feFlood flood-opacity="0" result="BackgroundImageFix"/>
<feColorMatrix in="SourceAlpha" type="matrix" values="0 0 0 0 0 0 0 0 0 0 0 0 0 0 0 0 0 0 127 0" result="hardAlpha"/>
<feOffset dx="6" dy="7"/>
<feGaussianBlur stdDeviation="3.5"/>
<feComposite in2="hardAlpha" operator="out"/>
<feColorMatrix type="matrix" values="0 0 0 0 0.500272 0 0 0 0 0.500272 0 0 0 0 0.500272 0 0 0 0.25 0"/>
<feBlend mode="normal" in2="BackgroundImageFix" result="effect1_dropShadow_1230_1801"/>
<feBlend mode="normal" in="SourceGraphic" in2="effect1_dropShadow_1230_1801" result="shape"/>
</filter>
</defs>
</svg>
