<svg width="24" height="25" viewBox="0 0 24 25" fill="none" xmlns="http://www.w3.org/2000/svg">
<g id="Frame">
<path id="Vector" d="M12 9.875C12.5192 9.875 13.0267 10.029 13.4584 10.3174C13.8901 10.6058 14.2265 11.0158 14.4252 11.4955C14.6239 11.9751 14.6758 12.5029 14.5746 13.0121C14.4733 13.5213 14.2233 13.989 13.8562 14.3562C13.489 14.7233 13.0213 14.9733 12.5121 15.0746C12.0029 15.1758 11.4751 15.1239 10.9955 14.9252C10.5158 14.7265 10.1058 14.39 9.81739 13.9584C9.52895 13.5267 9.375 13.0192 9.375 12.5C9.375 11.8038 9.65156 11.1361 10.1438 10.6438C10.6361 10.1516 11.3038 9.875 12 9.875ZM7.125 12.5C7.125 11.9808 6.97105 11.4733 6.68261 11.0416C6.39417 10.6099 5.9842 10.2735 5.50455 10.0748C5.02489 9.87614 4.49709 9.82415 3.98789 9.92544C3.47869 10.0267 3.01096 10.2767 2.64385 10.6438C2.27673 11.011 2.02673 11.4787 1.92544 11.9879C1.82415 12.4971 1.87614 13.0249 2.07482 13.5045C2.2735 13.9842 2.60995 14.3942 3.04163 14.6826C3.47331 14.971 3.98083 15.125 4.5 15.125C5.19619 15.125 5.86387 14.8484 6.35616 14.3562C6.84844 13.8639 7.125 13.1962 7.125 12.5ZM16.875 12.5C16.875 13.0192 17.029 13.5267 17.3174 13.9584C17.6058 14.39 18.0158 14.7265 18.4955 14.9252C18.9751 15.1239 19.5029 15.1758 20.0121 15.0746C20.5213 14.9733 20.989 14.7233 21.3562 14.3562C21.7233 13.989 21.9733 13.5213 22.0746 13.0121C22.1758 12.5029 22.1239 11.9751 21.9252 11.4955C21.7265 11.0158 21.3901 10.6058 20.9584 10.3174C20.5267 10.029 20.0192 9.875 19.5 9.875C18.8038 9.875 18.1361 10.1516 17.6438 10.6438C17.1516 11.1361 16.875 11.8038 16.875 12.5Z" fill="#ACB9B8"/>
</g>
</svg>
