<svg width="32" height="32" viewBox="0 0 32 32" fill="none" xmlns="http://www.w3.org/2000/svg">
<rect y="0.818115" width="32" height="31" rx="9" fill="#EEEBFF"/>
<g clip-path="url(#clip0_1487_7785)">
<path d="M12.5105 14.5148L11.6749 13.6517C11.1416 14.3568 10.8097 15.1713 10.709 16.0162H11.906C11.989 15.4874 12.1964 14.9707 12.5105 14.5148ZM11.906 17.2319H10.709C10.8097 18.0768 11.1357 18.8913 11.669 19.5964L12.5045 18.7332C12.1964 18.2774 11.989 17.7668 11.906 17.2319ZM12.5045 20.4656C13.1919 21.0126 13.9919 21.3409 14.8157 21.4442V20.2103C14.3001 20.1191 13.8023 19.9124 13.3579 19.5842L12.5045 20.4656ZM16.0008 11.8038V9.93774L13.3045 12.7034L16.0008 15.4083V13.0317C17.6838 13.3234 18.9638 14.8187 18.9638 16.624C18.9638 18.4293 17.6838 19.9246 16.0008 20.2164V21.4442C18.3416 21.1464 20.149 19.104 20.149 16.624C20.149 14.144 18.3416 12.1017 16.0008 11.8038Z" fill="#323232"/>
</g>
<defs>
<clipPath id="clip0_1487_7785">
<rect width="14.2222" height="14.5882" fill="white" transform="translate(8.29688 9.32983)"/>
</clipPath>
</defs>
</svg>
