<svg width="32" height="32" viewBox="0 0 32 32" fill="none" xmlns="http://www.w3.org/2000/svg">
<rect y="0.318115" width="32" height="31" rx="9" fill="#EEEBFF"/>
<g clip-path="url(#clip0_1487_7800)">
<path d="M15.4083 11.2591C18.0217 11.2591 20.1491 13.4413 20.1491 16.1219C20.1491 18.8025 18.0217 20.9846 15.4083 20.9846C12.795 20.9846 10.6676 18.8025 10.6676 16.1219C10.6676 13.4413 12.795 11.2591 15.4083 11.2591ZM15.4083 10.0435C12.1372 10.0435 9.48242 12.7666 9.48242 16.1219C9.48242 19.4772 12.1372 22.2003 15.4083 22.2003C18.6795 22.2003 21.3343 19.4772 21.3343 16.1219C21.3343 12.7666 18.6795 10.0435 15.4083 10.0435ZM14.8158 13.6905H13.6306V18.5533H14.8158V13.6905ZM18.3713 16.1219L15.4083 13.6905V18.5533L18.3713 16.1219Z" fill="#323232"/>
</g>
<defs>
<clipPath id="clip0_1487_7800">
<rect width="14.2222" height="14.5882" fill="white" transform="translate(8.29688 8.82788)"/>
</clipPath>
</defs>
</svg>
