<svg width="16" height="14" viewBox="0 0 16 14" fill="none" xmlns="http://www.w3.org/2000/svg">
<path id="Vector" d="M1.97142 4.63533C1.97135 3.94999 2.11771 3.27536 2.39735 2.67214C2.67699 2.06892 3.08113 1.55603 3.57342 1.17958C4.06572 0.80314 4.63072 0.574958 5.21762 0.51556C5.80452 0.456161 6.39491 0.56741 6.93569 0.839299C7.47646 1.11119 7.95067 1.53519 8.31564 2.07317C8.68062 2.61115 8.92492 3.24624 9.02659 3.92131C9.12825 4.59638 9.08407 5.29026 8.89804 5.94054C8.712 6.59082 8.38995 7.17711 7.96083 7.64667C8.76998 8.10346 9.47252 8.78051 10.0089 9.62041C10.5452 10.4603 10.8996 11.4383 11.0418 12.4714C11.0575 12.5864 11.0536 12.7038 11.0302 12.817C11.0069 12.9302 10.9646 13.0369 10.9058 13.1311C10.847 13.2253 10.7729 13.305 10.6876 13.3659C10.6023 13.4267 10.5075 13.4674 10.4087 13.4856C10.3099 13.5039 10.2089 13.4993 10.1116 13.4721C10.0143 13.445 9.9226 13.3958 9.84165 13.3274C9.76069 13.259 9.69211 13.1727 9.63982 13.0735C9.58753 12.9742 9.55255 12.864 9.53688 12.749C9.38457 11.6389 8.89704 10.6283 8.16186 9.89872C7.42668 9.16914 6.492 8.76836 5.52566 8.76836C4.55933 8.76836 3.62465 9.16914 2.88947 9.89872C2.15428 10.6283 1.66676 11.6389 1.51445 12.749C1.49871 12.864 1.46367 12.9742 1.41131 13.0734C1.35896 13.1726 1.29032 13.2589 1.20932 13.3272C1.12832 13.3956 1.03654 13.4447 0.939221 13.4718C0.841903 13.4988 0.740954 13.5033 0.642136 13.485C0.543319 13.4667 0.448568 13.426 0.363295 13.3651C0.278021 13.3042 0.203894 13.2243 0.145147 13.1301C0.0863995 13.0358 0.0441818 12.9291 0.0209042 12.8159C-0.00237331 12.7026 -0.00625483 12.5852 0.0094813 12.4702C0.151991 11.4375 0.50644 10.46 1.04278 9.62047C1.57912 8.781 2.28155 8.10433 3.0905 7.64785C2.73677 7.26146 2.45495 6.79474 2.26247 6.27658C2.06998 5.75841 1.97092 5.19982 1.97142 4.63533ZM11.1109 2.86327C11.7009 2.86375 12.2781 3.06347 12.7725 3.43818C13.2668 3.8129 13.657 4.3465 13.8957 4.97421C14.1344 5.60192 14.2114 6.29675 14.1172 6.97435C14.0231 7.65195 13.7619 8.28318 13.3653 8.79142C13.9834 9.14842 14.5326 9.64797 14.9796 10.2597C15.4265 10.8714 15.7617 11.5825 15.965 12.3497C16.0052 12.4987 16.0109 12.6573 15.9814 12.8097C15.9519 12.962 15.8883 13.1025 15.797 13.2169C15.7057 13.3314 15.5901 13.4157 15.4617 13.4614C15.3334 13.507 15.1969 13.5123 15.0663 13.4768C14.9357 13.4414 14.8154 13.3667 14.7176 13.2601C14.6197 13.1535 14.5477 13.0188 14.5088 12.8695C14.3268 12.1846 13.9951 11.5663 13.5462 11.0751C13.0973 10.584 12.5465 10.2367 11.9477 10.0673C11.7814 10.0206 11.6334 9.91013 11.5277 9.75368C11.4219 9.59724 11.3646 9.40393 11.3648 9.20491V8.78906C11.3647 8.6241 11.4042 8.46239 11.4788 8.32213C11.5535 8.18187 11.6603 8.06864 11.7872 7.99518C12.0951 7.81768 12.3423 7.52431 12.4888 7.16271C12.6352 6.80112 12.6723 6.39255 12.5939 6.00336C12.5156 5.61416 12.3264 5.26722 12.0572 5.01887C11.788 4.77052 11.4545 4.63536 11.1109 4.63533C10.9089 4.63533 10.7152 4.54199 10.5724 4.37582C10.4295 4.20966 10.3493 3.98429 10.3493 3.7493C10.3493 3.51431 10.4295 3.28894 10.5724 3.12278C10.7152 2.95662 10.9089 2.86327 11.1109 2.86327ZM5.52566 2.27258C5.2552 2.26546 4.98623 2.32128 4.73457 2.43676C4.4829 2.55223 4.2536 2.72503 4.06012 2.94502C3.86665 3.16501 3.71291 3.42775 3.60792 3.71781C3.50294 4.00787 3.44882 4.31941 3.44875 4.63414C3.44868 4.94887 3.50267 5.26044 3.60753 5.55056C3.71239 5.84069 3.86602 6.10351 4.0594 6.32361C4.25278 6.54371 4.482 6.71665 4.73362 6.83227C4.98524 6.94789 5.25418 7.00387 5.52465 6.99691C6.05531 6.98326 6.56029 6.72847 6.93149 6.28709C7.30269 5.84571 7.51061 5.25282 7.51074 4.63532C7.51087 4.01783 7.30321 3.42481 6.9322 2.98321C6.56119 2.54162 6.05632 2.28654 5.52566 2.27258Z" fill="white"/>
</svg>
