<svg width="56" height="56" viewBox="0 0 56 56" fill="none" xmlns="http://www.w3.org/2000/svg">
<g clip-path="url(#clip0_1230_2067)">
<rect width="56" height="56" rx="14" fill="white"/>
<circle cx="7.87262" cy="41.0921" r="41.5381" transform="rotate(-0.403168 7.87262 41.0921)" fill="url(#paint0_linear_1230_2067)" stroke="url(#paint1_linear_1230_2067)" stroke-width="0.085853"/>
<circle opacity="0.4" cx="39.0904" cy="20.7752" r="41.5381" transform="rotate(-0.403168 39.0904 20.7752)" fill="url(#paint2_linear_1230_2067)" stroke="url(#paint3_radial_1230_2067)" stroke-width="0.085853"/>
<path d="M16.1498 24.0002H39.8497M21.398 16.0675L27.9998 24.0003L34.6127 16.0731M39.5811 23.3723L34.9831 16.4752C34.8673 16.3015 34.8094 16.2147 34.7329 16.1519C34.6652 16.0962 34.5872 16.0545 34.5033 16.029C34.4086 16.0002 34.3043 16.0002 34.0955 16.0002H21.9039C21.6952 16.0002 21.5909 16.0002 21.4961 16.029C21.4123 16.0545 21.3343 16.0962 21.2666 16.1519C21.1901 16.2147 21.1322 16.3015 21.0164 16.4752L16.4184 23.3723C16.2676 23.5984 16.1923 23.7114 16.1653 23.833C16.1414 23.9404 16.1445 24.0521 16.1743 24.158C16.208 24.2779 16.2895 24.3866 16.4526 24.604L27.1464 38.8624C27.4359 39.2484 27.5806 39.4414 27.7581 39.5104C27.9135 39.5709 28.086 39.5709 28.2414 39.5104C28.4188 39.4414 28.5636 39.2484 28.8531 38.8624L39.5469 24.604C39.71 24.3866 39.7915 24.2779 39.8252 24.158C39.855 24.0521 39.8581 23.9404 39.8342 23.833C39.8072 23.7114 39.7318 23.5984 39.5811 23.3723Z" stroke="#1B223C" stroke-width="2" stroke-linecap="round" stroke-linejoin="round"/>
</g>
<defs>
<linearGradient id="paint0_linear_1230_2067" x1="7.87262" y1="-0.48893" x2="7.87262" y2="82.6732" gradientUnits="userSpaceOnUse">
<stop stop-color="#DAE2FF" stop-opacity="0.56"/>
<stop offset="1" stop-color="white" stop-opacity="0.2"/>
</linearGradient>
<linearGradient id="paint1_linear_1230_2067" x1="51.4246" y1="36.9581" x2="-44.9089" y2="58.3014" gradientUnits="userSpaceOnUse">
<stop stop-color="#B5C2FB"/>
<stop offset="1" stop-color="#B5C2FB" stop-opacity="0"/>
</linearGradient>
<linearGradient id="paint2_linear_1230_2067" x1="39.0904" y1="-20.8058" x2="39.0904" y2="62.3563" gradientUnits="userSpaceOnUse">
<stop stop-color="#B4C4FF" stop-opacity="0.5"/>
<stop offset="0.9999" stop-color="#E1E8FF" stop-opacity="0.0821875"/>
<stop offset="1" stop-color="#4C5C99" stop-opacity="0.08"/>
</linearGradient>
<radialGradient id="paint3_radial_1230_2067" cx="0" cy="0" r="1" gradientUnits="userSpaceOnUse" gradientTransform="translate(39.0904 20.7752) rotate(89.968) scale(86.1425)">
<stop offset="0.046875" stop-color="#B5C2FB" stop-opacity="0"/>
<stop offset="1" stop-color="#B5C2FB"/>
</radialGradient>
<clipPath id="clip0_1230_2067">
<rect width="56" height="56" rx="14" fill="white"/>
</clipPath>
</defs>
</svg>
