<svg width="25" height="25" viewBox="0 0 25 25" fill="none" xmlns="http://www.w3.org/2000/svg">
<g id="search-normal-1 1">
<g id="Group">
<path id="Vector" d="M11.9033 22.6235C6.25332 22.6235 1.65332 18.0235 1.65332 12.3735C1.65332 6.72354 6.25332 2.12354 11.9033 2.12354C17.5533 2.12354 22.1533 6.72354 22.1533 12.3735C22.1533 18.0235 17.5533 22.6235 11.9033 22.6235ZM11.9033 3.62354C7.07332 3.62354 3.15332 7.55353 3.15332 12.3735C3.15332 17.1935 7.07332 21.1235 11.9033 21.1235C16.7333 21.1235 20.6533 17.1935 20.6533 12.3735C20.6533 7.55353 16.7333 3.62354 11.9033 3.62354Z" fill="#A1A2AF"/>
<path id="Vector_2" d="M22.403 23.6235C22.213 23.6235 22.023 23.5535 21.873 23.4035L19.873 21.4035C19.7335 21.2623 19.6553 21.0719 19.6553 20.8735C19.6553 20.675 19.7335 20.4846 19.873 20.3435C20.163 20.0535 20.643 20.0535 20.933 20.3435L22.933 22.3435C23.223 22.6335 23.223 23.1135 22.933 23.4035C22.783 23.5535 22.593 23.6235 22.403 23.6235Z" fill="#A1A2AF"/>
</g>
</g>
</svg>
