<svg width="25" height="12" viewBox="0 0 25 12" fill="none" xmlns="http://www.w3.org/2000/svg">
<path d="M4.5 7C5.6 7 6.5 6.1 6.5 5C6.5 3.9 5.6 3 4.5 3C3.4 3 2.5 3.9 2.5 5C2.5 6.1 3.4 7 4.5 7ZM5.63 8.1C5.26 8.04 4.89 8 4.5 8C3.51 8 2.57 8.21 1.72 8.58C0.98 8.9 0.5 9.62 0.5 10.43V12H5V10.39C5 9.56 5.23 8.78 5.63 8.1ZM20.5 7C21.6 7 22.5 6.1 22.5 5C22.5 3.9 21.6 3 20.5 3C19.4 3 18.5 3.9 18.5 5C18.5 6.1 19.4 7 20.5 7ZM24.5 10.43C24.5 9.62 24.02 8.9 23.28 8.58C22.43 8.21 21.49 8 20.5 8C20.11 8 19.74 8.04 19.37 8.1C19.77 8.78 20 9.56 20 10.39V12H24.5V10.43ZM16.74 7.65C15.57 7.13 14.13 6.75 12.5 6.75C10.87 6.75 9.43 7.14 8.26 7.65C7.18 8.13 6.5 9.21 6.5 10.39V12H18.5V10.39C18.5 9.21 17.82 8.13 16.74 7.65ZM8.57 10C8.66 9.77 8.7 9.61 9.48 9.31C10.45 8.93 11.47 8.75 12.5 8.75C13.53 8.75 14.55 8.93 15.52 9.31C16.29 9.61 16.33 9.77 16.43 10H8.57ZM12.5 2C13.05 2 13.5 2.45 13.5 3C13.5 3.55 13.05 4 12.5 4C11.95 4 11.5 3.55 11.5 3C11.5 2.45 11.95 2 12.5 2ZM12.5 0C10.84 0 9.5 1.34 9.5 3C9.5 4.66 10.84 6 12.5 6C14.16 6 15.5 4.66 15.5 3C15.5 1.34 14.16 0 12.5 0Z" fill="#008080"/>
</svg>
