<svg width="265" height="162" viewBox="0 0 265 162" fill="none" xmlns="http://www.w3.org/2000/svg">
<g clip-path="url(#clip0_1432_1354)">
<rect y="0.303467" width="265" height="161" rx="16" fill="url(#paint0_linear_1432_1354)"/>
<rect y="0.303467" width="522" height="200" fill="url(#paint1_linear_1432_1354)"/>
<g opacity="0.08" clip-path="url(#clip1_1432_1354)">
<path d="M393.018 61.346L350.129 21.2624C349.501 20.6749 348.649 20.3452 347.76 20.3452H226.24C225.351 20.3452 224.499 20.6749 223.871 21.2624L180.982 61.346C179.746 62.5011 179.667 64.3499 180.801 65.5925L284.451 179.162C285.087 179.86 286.019 180.262 287 180.262C287.981 180.262 288.912 179.86 289.549 179.162L393.198 65.5925C394.333 64.3495 394.254 62.5007 393.018 61.346ZM342.949 26.6081L339.333 35.7526C338.691 37.3749 339.579 39.1761 341.314 39.7757C341.698 39.9077 342.089 39.9706 342.476 39.9706C343.838 39.9706 345.119 39.1882 345.619 37.9237L349.089 29.1479L382.56 60.4284H336.721L340.336 51.285C340.978 49.6628 340.091 47.8616 338.355 47.262C336.618 46.6624 334.692 47.4917 334.05 49.114L330.479 58.1444L295.329 26.6081H342.949ZM278.671 26.6081L243.521 58.1448L231.051 26.6081H278.671ZM224.911 29.1479L237.279 60.4284H191.44L224.911 29.1479ZM287 168.096L255.8 89.1936C255.158 87.5714 253.23 86.7425 251.495 87.3417C249.759 87.9413 248.872 89.7421 249.513 91.3647L277.329 161.708L190.612 66.6917H239.756L244.231 78.0061C244.731 79.2706 246.012 80.053 247.374 80.053C247.76 80.053 248.153 79.9905 248.535 79.8581C250.271 79.2585 251.158 77.4573 250.517 75.835L246.901 66.6917H312.019C313.869 66.6917 315.369 65.2897 315.369 63.56C315.369 61.8304 313.869 60.4284 312.019 60.4284H250.652L287 27.8175L327.945 64.5526L287 168.096ZM296.671 161.708L334.244 66.6917H383.388L296.671 161.708Z" fill="#F7FBFE"/>
</g>
</g>
<defs>
<linearGradient id="paint0_linear_1432_1354" x1="0" y1="161.303" x2="209.426" y2="8.0081" gradientUnits="userSpaceOnUse">
<stop stop-color="#1566DF"/>
<stop offset="1" stop-color="#21C5DB"/>
</linearGradient>
<linearGradient id="paint1_linear_1432_1354" x1="0" y1="200.303" x2="269.92" y2="-112.992" gradientUnits="userSpaceOnUse">
<stop stop-color="#008080"/>
<stop offset="1" stop-color="#400080"/>
</linearGradient>
<clipPath id="clip0_1432_1354">
<rect y="0.303467" width="265" height="161" rx="16" fill="white"/>
</clipPath>
<clipPath id="clip1_1432_1354">
<rect width="214" height="200" fill="white" transform="translate(180 0.303467)"/>
</clipPath>
</defs>
</svg>
