<svg width="219" height="42" viewBox="0 0 219 42" fill="none" xmlns="http://www.w3.org/2000/svg">
<path d="M31.2314 2.39115L31.286 30.3111L25.686 30.3219L25.6505 12.1619L18.206 30.3362L13.966 30.3444L6.41052 12.1989L6.44603 30.3588L0.846038 30.3696L0.79144 2.44966L7.15143 2.43744L16.072 23.1803L24.9114 2.4033L31.2314 2.39115ZM35.3609 19.2232C35.3564 16.9299 35.8191 14.929 36.7491 13.2206C37.6791 11.4854 38.9698 10.1496 40.6213 9.21311C42.2728 8.24994 44.1651 7.7663 46.2985 7.7622C49.0451 7.75692 51.3132 8.44589 53.1025 9.82912C54.9185 11.1856 56.1356 13.1033 56.7538 15.5821L50.7138 15.5937C50.3919 14.6343 49.8438 13.8887 49.0694 13.3569C48.3217 12.7983 47.3878 12.5201 46.2678 12.5223C44.6678 12.5253 43.4023 13.1144 42.4712 14.2896C41.5401 15.438 41.0767 17.0789 41.0809 19.2122C41.085 21.3189 41.5549 22.958 42.4905 24.1295C43.4261 25.2744 44.6938 25.8453 46.2938 25.8422C48.5605 25.8379 50.0385 24.8217 50.7279 22.7937L56.7679 22.7821C56.1592 25.1833 54.9496 27.0923 53.1391 28.5091C51.3285 29.9259 49.0632 30.6369 46.3432 30.6422C44.2099 30.6463 42.3156 30.1832 40.6605 29.2531C39.0053 28.2963 37.7093 26.9654 36.7727 25.2605C35.836 23.529 35.3654 21.5166 35.3609 19.2232ZM73.321 7.75025C75.001 7.74702 76.4951 8.11749 77.8032 8.86164C79.1113 9.57913 80.1267 10.6572 80.8495 12.0958C81.5989 13.5077 81.9756 15.2136 81.9795 17.2136L82.005 30.2136L76.405 30.2244L76.381 17.9844C76.3776 16.2244 75.935 14.8786 75.0531 13.9469C74.1713 12.9886 72.9703 12.5109 71.4503 12.5139C69.9037 12.5168 68.6779 12.9992 67.7731 13.9609C66.895 14.896 66.4576 16.2435 66.461 18.0035L66.485 30.2434L60.885 30.2542L60.8271 0.654257L66.4271 0.643493L66.447 10.8435C67.1652 9.88209 68.1237 9.13358 69.3227 8.59794C70.5216 8.03563 71.8543 7.75307 73.321 7.75025ZM85.8684 19.0462C85.8641 16.8062 86.3002 14.8187 87.1768 13.0836C88.08 11.3486 89.2908 10.0129 90.8089 9.07664C92.3538 8.14034 94.0729 7.67036 95.9662 7.66672C97.6195 7.66355 99.0602 7.99411 100.288 8.65842C101.543 9.32267 102.544 10.1608 103.293 11.1726L103.287 8.01265L108.927 8.00181L108.97 30.1618L103.33 30.1726L103.324 26.9326C102.606 27.974 101.608 28.8426 100.329 29.5384C99.077 30.2075 97.6243 30.5436 95.9709 30.5468C94.1043 30.5503 92.3967 30.0736 90.8481 29.1166C89.3263 28.1595 88.1103 26.8152 87.2002 25.0836C86.3168 23.3253 85.8729 21.3128 85.8684 19.0462ZM103.309 19.0926C103.306 17.7326 103.037 16.5731 102.502 15.6142C101.966 14.6285 101.245 13.8833 100.337 13.3783C99.4297 12.8467 98.4558 12.5819 97.4158 12.5839C96.3758 12.5859 95.4163 12.8411 94.5373 13.3495C93.6583 13.8578 92.9398 14.6059 92.3817 15.5936C91.8502 16.5547 91.5858 17.7018 91.5884 19.0352C91.591 20.3685 91.86 21.5413 92.3953 22.5536C92.9572 23.5392 93.6787 24.2978 94.5598 24.8295C95.4675 25.361 96.428 25.6259 97.4413 25.6239C98.4813 25.6219 99.4542 25.3667 100.36 24.8583C101.265 24.3232 101.984 23.5752 102.515 22.6142C103.047 21.6265 103.311 20.4526 103.309 19.0926ZM126.676 7.64769C129.316 7.64262 131.451 8.47852 133.081 10.1554C134.71 11.8056 135.528 14.124 135.534 17.1107L135.56 30.1107L129.96 30.1214L129.936 17.8814C129.932 16.1214 129.49 14.7756 128.608 13.844C127.726 12.8857 126.525 12.408 125.005 12.4109C123.458 12.4139 122.233 12.8962 121.328 13.858C120.45 14.793 120.012 16.1405 120.016 17.9005L120.04 30.1405L114.44 30.1513L114.396 7.9913L119.996 7.98053L120.002 10.7405C120.746 9.77909 121.692 9.03061 122.837 8.49507C124.009 7.93282 125.289 7.65036 126.676 7.64769ZM149.521 7.56378C151.174 7.5606 152.628 7.89114 153.883 8.5554C155.137 9.19299 156.126 10.0311 156.848 11.0697L156.841 7.90971L162.481 7.89887L162.525 30.2188C162.529 32.2722 162.119 34.0996 161.296 35.7012C160.472 37.3294 159.235 38.6118 157.583 39.5483C155.932 40.5115 153.933 40.9954 151.586 40.9999C148.44 41.0059 145.851 40.2776 143.822 38.8148C141.819 37.352 140.682 35.3542 140.41 32.8213L145.97 32.8107C146.265 33.8234 146.894 34.6222 147.855 35.207C148.843 35.8185 150.03 36.1229 151.417 36.1202C153.043 36.1171 154.362 35.6212 155.374 34.6326C156.385 33.6706 156.889 32.203 156.885 30.2297L156.878 26.7897C156.16 27.8311 155.162 28.6996 153.883 29.3954C152.632 30.0912 151.192 30.4406 149.566 30.4437C147.699 30.4473 145.991 29.9706 144.443 29.0136C142.894 28.0566 141.665 26.7122 140.755 24.9807C139.871 23.2224 139.427 21.2099 139.423 18.9432C139.419 16.7032 139.855 14.7157 140.731 12.9807C141.635 11.2456 142.845 9.90995 144.364 8.9737C145.908 8.03739 147.627 7.56742 149.521 7.56378ZM156.863 18.9897C156.86 17.6297 156.592 16.4702 156.056 15.5112C155.521 14.5256 154.8 13.7803 153.892 13.2754C152.984 12.7438 152.01 12.479 150.97 12.481C149.93 12.483 148.971 12.7382 148.092 13.2465C147.213 13.7549 146.494 14.5029 145.936 15.4907C145.405 16.4517 145.14 17.5989 145.143 18.9322C145.146 20.2655 145.415 21.4384 145.95 22.4507C146.512 23.4363 147.233 24.1949 148.114 24.7265C149.022 25.2581 149.983 25.5229 150.996 25.521C152.036 25.519 153.009 25.2638 153.914 24.7554C154.82 24.2203 155.539 23.4722 156.07 22.5112C156.601 21.5235 156.866 20.3497 156.863 18.9897ZM177.835 30.3894C175.702 30.3935 173.781 29.9305 172.072 29.0005C170.364 28.0438 169.014 26.6997 168.024 24.9682C167.061 23.2368 166.577 21.2377 166.573 18.971C166.568 16.7044 167.057 14.7034 168.041 12.9682C169.051 11.2329 170.421 9.89694 172.153 8.96028C173.884 7.99695 175.817 7.51323 177.95 7.50913C180.083 7.50503 182.018 7.98131 183.753 8.93798C185.488 9.86798 186.851 11.1987 187.841 12.9301C188.857 14.6615 189.368 16.6605 189.372 18.9272C189.377 21.1939 188.861 23.1949 187.824 24.9302C186.814 26.6655 185.43 28.0148 183.672 28.9782C181.941 29.9148 179.995 30.3852 177.835 30.3894ZM177.825 25.5094C178.839 25.5075 179.785 25.2656 180.664 24.7839C181.57 24.2755 182.288 23.5275 182.82 22.5398C183.351 21.5521 183.615 20.3516 183.612 18.9383C183.608 16.8316 183.045 15.2194 181.923 14.1015C180.827 12.9569 179.48 12.3862 177.88 12.3893C176.28 12.3924 174.934 12.9683 173.843 14.117C172.779 15.2391 172.248 16.8534 172.252 18.9601C172.257 21.0668 172.78 22.6924 173.822 23.8371C174.891 24.955 176.225 25.5125 177.825 25.5094ZM218.505 31.5512L218.515 36.8712L195.035 36.9163L195.025 31.5964L218.505 31.5512Z" fill="white"/>
</svg>
