<svg width="101" height="90" viewBox="0 0 101 90" fill="none" xmlns="http://www.w3.org/2000/svg">
<rect x="0.930664" width="100" height="90" rx="20" fill="url(#paint0_linear_1264_945)"/>
<path d="M17.9307 43.6247C17.9307 40.0727 18.6122 36.7407 19.9751 33.6285C21.3379 30.5163 23.1778 27.8101 25.4945 25.5098C27.8455 23.1757 30.5883 21.349 33.7228 20.0297C36.8575 18.6766 40.2133 18 43.791 18C47.7774 18 51.4569 18.8119 54.8301 20.4356C58.2032 22.0255 61.0822 24.2074 63.4671 26.9813L54.7791 32.6644C53.348 31.2436 51.6956 30.1442 49.8216 29.3662C47.9478 28.5543 45.9375 28.1484 43.791 28.1484C41.6444 28.1484 39.6171 28.5543 37.7092 29.3662C35.8013 30.178 34.1486 31.2944 32.7519 32.7151C31.3549 34.1021 30.2475 35.7427 29.43 37.6371C28.6122 39.4976 28.2034 41.4935 28.2034 43.6247C28.2034 45.7559 28.6122 47.7685 29.43 49.663C30.2475 51.5572 31.3549 53.1978 32.7519 54.5848C34.1486 55.9718 35.8013 57.0713 37.7092 57.883C39.6171 58.695 41.6444 59.1009 43.791 59.1009C45.9375 59.1009 47.9478 58.7119 49.8216 57.9339C51.6956 57.1219 53.348 56.0057 54.7791 54.5848L63.4671 60.3187C61.0822 63.0927 58.2032 65.2914 54.8301 66.9151C51.4569 68.5051 47.7774 69.3001 43.791 69.3001C40.2133 69.3001 36.8575 68.6404 33.7228 67.3212C30.5883 65.9681 27.8455 64.1244 25.4945 61.7901C23.1778 59.4561 21.3379 56.733 19.9751 53.6209C18.6122 50.5086 17.9307 47.1765 17.9307 43.6247ZM38.118 33.2225C39.7195 32.343 41.5082 31.8694 43.4843 31.8018C44.3701 31.8018 45.205 31.8694 45.9884 32.0048C46.8063 32.1401 47.6241 32.3769 48.4416 32.7151V37.6878H72.7175V18.8626H82.9902V68.4373H72.7175V47.9376H48.4416V54.5343C47.0108 55.1429 45.4605 55.4474 43.791 55.4474C41.7466 55.4474 39.8558 54.9907 38.118 54.0776V33.2225Z" fill="#FFECEC" fill-opacity="0.2"/>
<path d="M17.9307 46.3244C17.9307 42.7724 18.6122 39.4404 19.9751 36.3282C21.3379 33.216 23.1778 30.5098 25.4945 28.2095C27.8455 25.8754 30.5883 24.0487 33.7228 22.7294C36.8575 21.3763 40.2133 20.6997 43.791 20.6997C47.7774 20.6997 51.4569 21.5116 54.8301 23.1353C58.2032 24.7252 61.0822 26.9071 63.4671 29.681L54.7791 35.3641C53.348 33.9433 51.6956 32.8439 49.8216 32.0659C47.9478 31.254 45.9375 30.8481 43.791 30.8481C41.6444 30.8481 39.6171 31.254 37.7092 32.0659C35.8013 32.8777 34.1486 33.9941 32.7519 35.4148C31.3549 36.8018 30.2475 38.4424 29.43 40.3368C28.6122 42.1973 28.2034 44.1932 28.2034 46.3244C28.2034 48.4556 28.6122 50.4682 29.43 52.3627C30.2475 54.2569 31.3549 55.8976 32.7519 57.2845C34.1486 58.6716 35.8013 59.771 37.7092 60.5827C39.6171 61.3947 41.6444 61.8006 43.791 61.8006C45.9375 61.8006 47.9478 61.4117 49.8216 60.6336C51.6956 59.8216 53.348 58.7054 54.7791 57.2845L63.4671 63.0184C61.0822 65.7924 58.2032 67.9911 54.8301 69.6148C51.4569 71.2048 47.7774 71.9999 43.791 71.9999C40.2133 71.9999 36.8575 71.3401 33.7228 70.0209C30.5883 68.6678 27.8455 66.8241 25.4945 64.4898C23.1778 62.1559 21.3379 59.4327 19.9751 56.3206C18.6122 53.2083 17.9307 49.8762 17.9307 46.3244ZM38.118 35.9223C39.7195 35.0427 41.5082 34.5691 43.4843 34.5015C44.3701 34.5015 45.205 34.5691 45.9884 34.7045C46.8063 34.8398 47.6241 35.0766 48.4416 35.4148V40.3875H72.7175V21.5623H82.9902V71.137H72.7175V50.6373H48.4416V57.234C47.0108 57.8426 45.4605 58.1471 43.791 58.1471C41.7466 58.1471 39.8558 57.6904 38.118 56.7773V35.9223Z" fill="white"/>
<defs>
<linearGradient id="paint0_linear_1264_945" x1="50.9307" y1="0" x2="50.9307" y2="90" gradientUnits="userSpaceOnUse">
<stop offset="0.061458" stop-color="#008080"/>
<stop offset="0.525"/>
<stop offset="1" stop-color="#3D3A42"/>
</linearGradient>
</defs>
</svg>
